<?xml version="1.0" encoding="utf-8"?>
<!-- Generator: Adobe Illustrator 15.0.2, SVG Export Plug-In  -->
<!DOCTYPE svg PUBLIC "-//W3C//DTD SVG 1.1//EN" "http://www.w3.org/Graphics/SVG/1.1/DTD/svg11.dtd" [
	<!ENTITY ns_flows "http://ns.adobe.com/Flows/1.0/">
]>
<svg version="1.1"
	 xmlns="http://www.w3.org/2000/svg" xmlns:xlink="http://www.w3.org/1999/xlink" xmlns:a="http://ns.adobe.com/AdobeSVGViewerExtensions/3.0/"
	 x="0px" y="0px" width="25px" height="25px" viewBox="0 0 25 25" overflow="visible" enable-background="new 0 0 25 25"
	 xml:space="preserve">
<defs>
</defs>
<path fill="#7AD3AB" d="M9.347,6.561v11.895c0,0.024-0.14,2.521-2.449,3.428c-0.568,0.221-1.231,0.332-1.959,0.332
	c-1.788,0-3.052-0.574-3.763-1.715c-0.542-0.863-0.587-1.784-0.587-2.045L0.59,6.559c0-1.421,1.092-2.843,2.656-3.456
	C3.784,2.892,4.353,2.785,4.95,2.785c0.323,0,0.644,0.031,0.953,0.093C6.714,3.037,7.46,3.398,8.066,3.936
	C8.875,4.649,9.347,5.607,9.347,6.561z"/>
<path fill="#2D3580" d="M8.455,3.485C7.867,2.968,7.155,2.6,6.388,2.39V0H3.471v2.416c-0.147,0.043-0.3,0.076-0.439,0.132
	C1.249,3.247,0.004,4.893,0.004,6.55L0,18.461c0,0.303,0.048,1.363,0.673,2.355c0.626,0.998,1.595,1.625,2.889,1.875H3.471V25h2.917
	v-2.348c0.251-0.057,0.495-0.125,0.719-0.215c2.703-1.062,2.824-3.947,2.824-3.978L9.936,6.553C9.936,5.431,9.396,4.312,8.455,3.485
	z M8.858,18.548c-0.003,0.026-0.013,0.074-0.018,0.109c-0.008,0.051-0.014,0.096-0.027,0.159c-0.013,0.067-0.037,0.15-0.058,0.229
	c-0.014,0.054-0.021,0.099-0.04,0.155c-0.029,0.1-0.074,0.212-0.119,0.322c-0.019,0.047-0.029,0.09-0.052,0.139
	c-0.051,0.115-0.121,0.236-0.189,0.355c-0.027,0.047-0.046,0.094-0.076,0.142c-0.075,0.116-0.172,0.231-0.267,0.346
	c-0.04,0.048-0.069,0.099-0.113,0.146c-0.105,0.113-0.235,0.214-0.364,0.314c-0.053,0.042-0.093,0.09-0.149,0.128
	c-0.195,0.136-0.417,0.257-0.667,0.354c-0.507,0.197-1.104,0.299-1.775,0.299c-1.144,0-2.033-0.266-2.683-0.764
	c-0.268-0.207-0.505-0.44-0.687-0.73c-0.111-0.178-0.195-0.357-0.264-0.533c-0.007-0.018-0.016-0.035-0.022-0.053
	c-0.058-0.157-0.098-0.307-0.13-0.447c-0.008-0.035-0.018-0.072-0.024-0.105c-0.024-0.125-0.041-0.238-0.051-0.336
	c-0.003-0.023-0.007-0.053-0.009-0.072c-0.008-0.104-0.012-0.191-0.012-0.244L1.069,6.55c0-1.229,0.967-2.467,2.354-3.011
	C3.9,3.351,4.412,3.254,4.945,3.254c0.286,0,0.568,0.03,0.84,0.083c0.211,0.04,0.417,0.096,0.617,0.166
	c0.063,0.021,0.123,0.051,0.185,0.075c0.151,0.062,0.299,0.131,0.442,0.21c0.063,0.034,0.126,0.069,0.188,0.107
	C7.386,4,7.547,4.115,7.698,4.244C7.715,4.259,7.735,4.27,7.752,4.285c0.71,0.623,1.117,1.449,1.117,2.268v11.888
	C8.868,18.455,8.865,18.491,8.858,18.548z M5.426,0.962v1.272C5.09,2.205,4.763,2.207,4.432,2.239V0.962H5.426z M4.432,24.038
	v-1.245c0.168,0.012,0.335,0.021,0.512,0.021c0.167,0,0.32-0.023,0.482-0.035v1.259H4.432z"/>
</svg>
