<?xml version="1.0" encoding="utf-8"?>
<!-- Generator: Adobe Illustrator 15.0.2, SVG Export Plug-In  -->
<!DOCTYPE svg PUBLIC "-//W3C//DTD SVG 1.1//EN" "http://www.w3.org/Graphics/SVG/1.1/DTD/svg11.dtd" [
	<!ENTITY ns_flows "http://ns.adobe.com/Flows/1.0/">
]>
<svg version="1.1"
	 xmlns="http://www.w3.org/2000/svg" xmlns:xlink="http://www.w3.org/1999/xlink" xmlns:a="http://ns.adobe.com/AdobeSVGViewerExtensions/3.0/"
	 x="0px" y="0px" width="100px" height="100px" viewBox="-15 -5 100 100"
	 overflow="visible" enable-background="new -15 -5 100 100" xml:space="preserve">
<defs>
</defs>
<path fill="#2D3580" d="M35,90c5.8,0,24.4-0.5,25-7.2l9.8-46.699C69.9,35.8,70,35.401,70,35l0,0l0,0C70,15.7,54.3,0,35,0
	S0,15.7,0,35l0,0l0,0c0,0.4,0.101,0.8,0.201,1.101l9.8,46.699C10.6,89.5,29.2,90,35,90z M35,5c15,0,27.398,11,29.6,25.3
	C62.9,29.8,60.9,29.4,58.3,29c-6.3-1-14.6-1.5-23.4-1.5c-8.8,0-17,0.5-23.3,1.5c-2.5,0.399-4.6,0.8-6.3,1.3C7.6,16,20,5,35,5z
	 M62.9,35C58.6,36.2,49.299,37.499,35,37.499S11.4,36.2,7.1,35c4.3-1.2,13.6-2.5,27.9-2.5S58.602,33.8,62.9,35z"/>
</svg>
