<?xml version="1.0" encoding="utf-8"?>
<!-- Generator: Adobe Illustrator 16.0.0, SVG Export Plug-In . SVG Version: 6.00 Build 0)  -->
<!DOCTYPE svg PUBLIC "-//W3C//DTD SVG 1.1//EN" "http://www.w3.org/Graphics/SVG/1.1/DTD/svg11.dtd">
<svg version="1.1" id="Layer_1" xmlns="http://www.w3.org/2000/svg" xmlns:xlink="http://www.w3.org/1999/xlink" x="0px" y="0px"
	 width="1152.958px" height="410.924px" viewBox="202.561 223.68 1152.958 410.924"
	 enable-background="new 202.561 223.68 1152.958 410.924" xml:space="preserve">
<g>
	<rect x="634.561" y="456" width="48" height="17.28"/>
	<rect x="634.561" y="484.8" width="48" height="17.28"/>
	<rect x="634.561" y="514.56" width="48" height="17.28"/>
	<path d="M1152,530.88l-14.4,9.601l0.961,0.96c0.959,0.96,0.959,1.92,1.92,3.84c0.959,2.88,1.92,4.8,1.92,7.68s-0.96,6.72-1.92,9.6
		c-3.841,8.641-11.521,13.44-21.12,13.44c-3.841,0-7.681-0.96-11.521-2.88c-0.96,0-0.96-0.96-0.96-0.96l-4.8,6.72l-4.8,6.72
		c6.72,4.801,14.399,6.721,23.04,6.721c19.199,0,35.52-13.44,39.359-31.681c0.96-2.88,0.96-5.76,0.96-9.6c0-2.88,0-5.76-0.96-7.68
		C1157.76,540.48,1154.88,535.68,1152,530.88z"/>
	<path d="M710.4,545.28c-0.961,2.88-0.961,5.76-0.961,8.64s0,5.76,0.961,8.641c0.96,4.8,2.88,9.6,5.76,14.399l6.72-4.8l6.72-4.8
		l-0.96-0.96c-0.96-0.96-0.96-1.92-0.96-2.88c-0.96-2.881-1.92-5.761-1.92-8.641s0.96-5.76,1.92-8.64
		c3.84-8.641,11.521-14.4,21.12-14.4c3.84,0,7.681,0.96,11.521,2.88c0.96,0,0.96,0.96,0.96,0.96L768,528l4.8-6.72
		c-6.72-4.8-14.399-6.721-23.04-6.721C730.561,513.6,714.24,527.04,710.4,545.28z"/>
	<path d="M1355.52,316.8v-42.24h-42.239v-0.96c-17.28-28.8-42.24-49.92-77.761-49.92h-628.8v318.083h-13.502
		c-0.562,10.965-1.126,10.965-1.688,11c-4.982-4.285-11.265-7.406-17.719-9.281c2.251-32.641-19.493-62.926-52.312-71.719
		c-33.414-8.955-67.179,8.246-81,38.812c-3.602-0.875-7.226-1.689-10.97-1.689c-20.505,0-37.457,13.264-44.719,31.219
		c-0.554-0.02-1.144,0-1.688,0c-26.077,0-47.25,21.174-47.25,47.251c-0.101,7.133,6.367,13.5,13.5,13.5
		c7.134,0,13.602-6.367,13.5-13.5c0-11.484,8.765-20.251,20.25-20.251c0.502,0,1.12-0.053,1.688,0
		c7.483,7.097,22.387,1.024,22.781-9.279c0-12.361,9.577-21.939,21.938-21.939c3.879,0,7.609,0.588,10.97,2.531
		c7.688,7.281,23.033,0.461,22.78-10.125c0.068-0.248-0.071-0.598,0-0.844c0.035-0.562,0.035-1.125,0-1.688
		c7.131-21.568,29.205-33.809,51.47-27.844c23.109,6.189,36.566,29.203,30.375,52.311c-0.781,3.422-0.162,7.143,1.688,10.125
		c0.281,0.01,0.562,0.01,0.844,0c-0.009,0.281-0.009,0.562,0,0.846c0.24,0.58,0.523,1.145,0.844,1.688
		c0.269,0.293,0.552,0.574,0.845,0.844c0.27,0.293,0.551,0.574,0.844,0.844c0.281,0.01,0.562,0.01,0.844,0
		c2.593,2.729,6.361,4.3,10.125,4.22c10.878,0,19.406,8.529,19.406,19.406c0,9.375-6.475,16.631-15.188,18.561H255.717
		c3.113-1.535,5.589-4.32,6.75-7.594c4.908-8.443-2.915-20.961-12.656-20.25c-4.633,0.412-8.952,3.402-10.969,7.594
		c-4.74,6.387-2.125,16.848,5.062,20.25h-41.343v27H557.78c1.082,0.426,2.221,0.709,3.375,0.844c3.185,0,6.271-0.221,9.281-0.844
		h785.083v-27h-193.945c13.84-10.798,23.326-26.83,25.945-45.161h48.961h82.56c12.479,0,23.04-10.56,23.04-23.04V387.84
		c0-28.8-5.76-65.279-20.16-96.96h16.32v25.92H1355.52z M603.343,606.763c2.653-5.826,4.219-11.787,4.219-18.562
		c0-1.873-0.093-16.716-0.099-26.601h73.177c2.095,18.331,11.63,34.363,25.622,45.161h-37.108c0,0.001,0.001,0.001,0.001,0.002
		H603.343z M748.8,604.8c-24.96,0-46.08-18.24-49.92-42.24c-0.96-2.88-0.96-5.76-0.96-8.64s0-5.76,0.96-8.64
		c3.84-24,24.96-42.24,49.92-42.24s46.08,18.24,49.92,42.24c0.96,2.88,0.96,5.76,0.96,8.64s0,5.76-0.96,8.64
		C794.88,586.56,773.76,604.8,748.8,604.8z M1004.967,606.761h-46.326c-0.027,0-0.053,0.002-0.08,0.002
		c-0.025,0-0.053-0.002-0.078-0.002h-46.328c0,0.001,0,0.001,0,0.002H791.012c13.841-10.798,23.329-26.831,25.948-45.163h28.8
		h117.12h88.32c2.095,18.331,11.63,34.363,25.621,45.161H1004.967z M845.76,394.56h-83.52V302.4h83.52V394.56z M945.6,411.84v133.44
		h-82.56V411.84H945.6z M863.04,394.56V302.4h82.56v92.16H863.04z M1046.4,411.84h17.279h82.561h0.96v79.68
		c-8.64-3.84-18.24-5.76-27.84-5.76c-34.561,0-63.36,25.92-68.16,59.521h-88.32V411.84H1046.4z M962.88,394.56V302.4h83.521v92.16
		H962.88z M1063.68,394.56V302.4h82.561v92.16H1063.68z M1169.28,562.56c-3.84,24-24.96,42.24-49.92,42.24s-46.08-18.24-49.92-42.24
		c-0.96-2.88-0.96-5.76-0.96-8.64s0-5.76,0.96-8.64c3.84-24,24.96-42.24,49.92-42.24s46.08,18.24,49.92,42.24
		c0.96,2.88,0.96,5.76,0.96,8.64S1170.24,559.68,1169.28,562.56z M1247.04,533.76c0,5.76-4.8,11.521-11.521,11.521h-48
		c-1.92-17.28-10.56-31.681-23.039-42.24v-91.2h80.64c0.96,0,1.92,0,1.92,0V533.76z M1248,313.92h-0.96v78.72
		c0,0.96-0.96,1.92-1.92,1.92h-80.64V302.4h72h0.96c4.8,0,9.6,3.84,10.56,7.68V313.92z M1324.8,539.52
		c0,2.881-2.88,5.761-5.76,5.761h-56.64h-0.96c1.92-3.84,1.92-7.681,1.92-11.521V391.68v-77.76l0.96-9.6
		c0-10.56-8.641-19.2-19.2-19.2h-7.681h-0.959h-88.32h-0.96h-82.561H1046.4H962.88H945.6h-82.56h-17.28h-83.52h-17.28h-83.52
		c-10.561,0-19.2,8.64-19.2,19.2v87.36c0,10.561,8.64,19.2,19.2,19.2h83.52h17.28h83.52v133.44h-28.8
		c-3.84-33.601-32.64-59.521-68.16-59.521c-35.52,0-63.359,25.92-68.16,59.521H624v-302.4h611.52c26.881,0,48,14.4,64.32,44.16
		c-8.64,0.96-15.359,8.64-15.359,18.24v135.36c0,10.561,8.64,18.24,18.239,18.24h22.08V539.52z M744.96,303.36v91.2h-83.52
		c-0.96,0-1.921-0.96-1.921-1.92V305.28c0-0.96,0.961-1.92,1.921-1.92H744.96z M1324.8,387.84v51.84h-22.08
		c-0.96,0-0.96-0.96-0.96-0.96V303.36c0-0.96,0.96-0.96,0.96-0.96h5.761C1320,332.16,1324.8,365.76,1324.8,387.84z"/>
	<path d="M277.654,552.762c6.716,3.598,15.811,0.355,18.562-6.75c5.478-8.947-4.085-22.447-14.343-20.25
		c-3.881,0.746-7.377,3.289-9.281,6.75v0.844C268.202,539.584,270.939,549.166,277.654,552.762z"/>
	<path d="M344.31,526.605c6.715,3.598,15.81,0.355,18.562-6.75c5.152-8.695-3.491-21.66-13.498-20.25
		c-4.339,0.682-8.258,3.621-10.125,7.596C334.858,513.428,337.595,523.01,344.31,526.605z"/>
	<path d="M558.622,594.106h0.845c5.918-9.199-4.699-23.355-15.187-20.25c-3.731,1.15-6.901,4.002-8.438,7.594h-0.844
		c-4.391,6.229-1.653,15.809,5.062,19.406S555.87,601.21,558.622,594.106z"/>
	<path d="M470.872,573.856c5.152-8.696-3.491-21.661-13.498-20.251c-4.339,0.682-8.258,3.621-10.125,7.596
		c-4.391,6.227-1.653,15.808,5.062,19.405S468.12,580.96,470.872,573.856z"/>
	<path d="M497.874,525.762c-3.48,0.418-6.933,1.531-10.125,3.375c-7.507,2.639-10.807,12.562-6.75,19.406
		c4.056,6.844,14.332,8.691,20.25,3.375c-0.223,7.289,6.211,14.123,13.5,14.344c7.289,0.223,14.123-6.211,14.344-13.5
		c0-4.74-1.851-9.395-4.219-13.5v-0.844C519.341,528.836,508.315,524.51,497.874,525.762z"/>
</g>
</svg>
