<?xml version="1.0" encoding="utf-8"?>
<!-- Generator: Adobe Illustrator 16.0.0, SVG Export Plug-In . SVG Version: 6.00 Build 0)  -->
<!DOCTYPE svg PUBLIC "-//W3C//DTD SVG 1.1//EN" "http://www.w3.org/Graphics/SVG/1.1/DTD/svg11.dtd">
<svg version="1.1"
	 id="Layer_1" xmlns:dc="http://purl.org/dc/elements/1.1/" xmlns:cc="http://creativecommons.org/ns#" xmlns:rdf="http://www.w3.org/1999/02/22-rdf-syntax-ns#" xmlns:svg="http://www.w3.org/2000/svg" xmlns:inkscape="http://www.inkscape.org/namespaces/inkscape" xmlns:sodipodi="http://sodipodi.sourceforge.net/DTD/sodipodi-0.dtd"
	 xmlns="http://www.w3.org/2000/svg" xmlns:xlink="http://www.w3.org/1999/xlink" x="0px" y="0px" width="864px" height="244.688px"
	 viewBox="528 593.158 864 244.688" enable-background="new 528 593.158 864 244.688" xml:space="preserve">
<path d="M1052.812,593.158c-0.581,0.24-1.146,0.523-1.688,0.844h-0.844H1027.5c-3.645-0.309-7.395,0.941-10.125,3.375
	l-77.625,78.469c-1.248,0.66-2.392,1.518-3.375,2.531c-1.014,0.983-1.871,2.127-2.531,3.375c-0.32,0.542-0.603,1.106-0.844,1.688
	c-0.141,1.119-0.141,2.256,0,3.375c-0.222,1.395-0.222,2.824,0,4.219c-0.009,0.281-0.009,0.562,0,0.844v64.125h-14.344
	c-0.562-0.035-1.126-0.035-1.688,0c-4.983-4.284-11.265-7.405-17.719-9.281c2.251-32.641-19.493-62.926-52.312-71.719
	c-33.414-8.955-67.178,8.247-81,38.812c-3.601-0.875-7.225-1.688-10.969-1.688c-20.505,0-37.457,13.263-44.719,31.219
	c-0.554-0.021-1.144,0-1.688,0c-26.078,0-47.25,21.174-47.25,47.25c-0.101,7.132,6.367,13.5,13.5,13.5s13.601-6.368,13.5-13.5
	c0-11.485,8.764-20.25,20.25-20.25c0.502,0,1.12-0.054,1.688,0c7.483,7.096,22.387,1.023,22.781-9.281
	c0-12.36,9.577-21.938,21.938-21.938c3.879,0,7.609,0.587,10.969,2.531c7.688,7.281,23.034,0.461,22.781-10.125
	c0.068-0.248-0.072-0.598,0-0.844c0.035-0.562,0.035-1.126,0-1.688c7.131-21.568,29.205-33.808,51.469-27.844
	c23.11,6.191,36.567,29.203,30.375,52.312c-0.781,3.422-0.162,7.142,1.688,10.125c0.281,0.009,0.562,0.009,0.844,0
	c-0.009,0.281-0.009,0.562,0,0.844c0.24,0.581,0.523,1.146,0.844,1.688c0.268,0.294,0.551,0.575,0.844,0.844
	c0.27,0.294,0.551,0.575,0.844,0.844c0.281,0.009,0.562,0.009,0.844,0c2.592,2.729,6.361,4.3,10.125,4.219
	c10.878,0,19.406,8.53,19.406,19.406c0,9.375-6.475,16.632-15.188,18.562H581.156c3.113-1.536,5.589-4.321,6.75-7.594
	c4.908-8.444-2.915-20.961-12.656-20.25c-4.633,0.412-8.952,3.402-10.969,7.594c-4.74,6.386-2.125,16.847,5.062,20.25H528v27
	h355.219c1.082,0.425,2.22,0.709,3.375,0.844c3.184,0,6.271-0.222,9.281-0.844H1392v-27h-61.594c4.628-7.952,7.594-17.199,7.594-27
	h40.5c7.068-0.001,13.499-6.432,13.5-13.5v-40.5c0-16.486-1.067-30.552-10.969-41.344c-9.901-10.795-24.683-12.656-43.031-12.656
	h-61.594l-77.625-77.625c-2.526-2.23-5.912-3.461-9.281-3.375h-21.938h-3.375c-1.668-0.318-3.395-0.318-5.062,0h-0.844h-98.719
	h-3.375C1055.105,593.577,1053.968,593.293,1052.812,593.158z M1032.562,621.002H1041v54h-62.438L1032.562,621.002z M1068,621.002
	h81v54h-81V621.002z M1176,621.002h7.594l54,54h-8.438v-0.844H1176V621.002z M960,702.002h92.812h2.531H1270.5h67.5
	c15.789,0,21.072,2.351,22.781,4.219c1.709,1.863,4.219,8.069,4.219,22.781v27h-37.125c-0.281-0.009-0.562-0.009-0.844,0
	c-9.534-15.463-23.66-27-43.031-27c-19.484,0-35.224,11.378-44.719,27c-50.721-0.021-116.463,0.014-155.25,0
	c-9.534-15.463-23.66-27-43.031-27c-19.294,0-33.476,11.64-43.031,27H960V702.002z M674.812,702.846
	c-4.338,0.681-8.257,3.62-10.125,7.594c-4.39,6.228-1.653,15.809,5.062,19.406s15.81,0.354,18.562-6.75
	C693.463,714.4,684.819,701.436,674.812,702.846z M607.312,729.002c-3.88,0.745-7.377,3.288-9.281,6.75v0.844
	c-4.39,6.228-1.653,15.809,5.062,19.406s15.81,0.354,18.562-6.75C627.133,740.304,617.57,726.805,607.312,729.002z M823.312,729.002
	c-3.48,0.417-6.932,1.531-10.125,3.375c-7.506,2.639-10.806,12.562-6.75,19.406s14.332,8.691,20.25,3.375
	c-0.222,7.289,6.211,14.123,13.5,14.344c7.289,0.222,14.123-6.211,14.344-13.5c0-4.741-1.85-9.396-4.219-13.5v-0.844
	C844.78,732.076,833.754,727.75,823.312,729.002z M1041,756.002c15.071,0,27,11.929,27,27s-11.929,27-27,27s-27-11.929-27-27
	S1025.929,756.002,1041,756.002z M1284,756.002c15.071,0,27,11.929,27,27s-11.929,27-27,27s-27-11.929-27-27
	c0-2.538,0.205-5.299,0.844-7.594c0.222-0.783,0.554-1.775,0.844-2.531C1262.542,762.738,1272.344,756.002,1284,756.002z
	 M782.812,756.846c-4.338,0.681-8.257,3.62-10.125,7.594c-4.39,6.228-1.653,15.809,5.062,19.406s15.81,0.354,18.562-6.75
	C801.463,768.4,792.819,755.436,782.812,756.846z M869.719,777.096c-3.732,1.15-6.902,4.003-8.438,7.594h-0.844
	c-4.39,6.228-1.653,15.809,5.062,19.406s15.81,0.354,18.562-6.75h0.844C890.823,788.147,880.206,773.991,869.719,777.096z
	 M932.156,783.002h13.5c0.562,0.035,1.126,0.035,1.688,0H987c0,9.801,2.966,19.048,7.594,27h-65.812
	c2.654-5.825,4.219-11.786,4.219-18.562C933,788.543,932.674,785.757,932.156,783.002z M1095,783.002h135
	c0,9.801,2.966,19.048,7.594,27h-150.188C1092.034,802.05,1095,792.803,1095,783.002z"/>
</svg>
