<?xml version="1.0" encoding="utf-8"?>
<!-- Generator: Adobe Illustrator 16.0.0, SVG Export Plug-In . SVG Version: 6.00 Build 0)  -->
<!DOCTYPE svg PUBLIC "-//W3C//DTD SVG 1.1//EN" "http://www.w3.org/Graphics/SVG/1.1/DTD/svg11.dtd">
<svg version="1.1"
	 id="Layer_1" xmlns:dc="http://purl.org/dc/elements/1.1/" xmlns:cc="http://creativecommons.org/ns#" xmlns:rdf="http://www.w3.org/1999/02/22-rdf-syntax-ns#" xmlns:svg="http://www.w3.org/2000/svg" xmlns:inkscape="http://www.inkscape.org/namespaces/inkscape" xmlns:sodipodi="http://sodipodi.sourceforge.net/DTD/sodipodi-0.dtd"
	 xmlns="http://www.w3.org/2000/svg" xmlns:xlink="http://www.w3.org/1999/xlink" x="0px" y="0px" width="50px" height="42.432px"
	 viewBox="921.5 376.584 50 42.432" enable-background="new 921.5 376.584 50 42.432" xml:space="preserve">
<path d="M944.814,376.588c-0.354,0.067-0.632,0.411-0.626,0.771l0.048,23.887h-19.264c-0.403,0-0.771,0.367-0.771,0.771v15.459
	c-0.006,0.407,0.363,0.771,0.771,0.771s0.776-0.363,0.771-0.771v-14.688h18.445v3.083c0.011,0.049,0.027,0.098,0.048,0.144
	c-0.002,0.032-0.002,0.064,0,0.097v5.153c-0.005,0.407,0.364,0.771,0.771,0.771c0.407,0,0.776-0.363,0.771-0.771l-0.048-33.133
	h10.788v27.74c0.011,0.049,0.027,0.098,0.048,0.144c0,0.016,0,0.032,0,0.048c0,0.016,0,0.032,0,0.048c0.016,0,0.032,0,0.048,0
	c0,0.016,0,0.032,0,0.048c0,0.016,0,0.032,0,0.048c0,0.016,0,0.032,0,0.048c0.016,0,0.032,0,0.048,0c0,0.016,0,0.032,0,0.048
	c0.014,0.033,0.03,0.065,0.048,0.096c0.015,0.017,0.031,0.033,0.048,0.048c0,0.016,0,0.032,0,0.048c0.016,0,0.032,0,0.048,0
	c0.427,0.405,1.278,0.058,1.3-0.53v-15.507h9.15v27.065c-0.006,0.407,0.363,0.771,0.771,0.771s0.776-0.363,0.771-0.771v-27.836
	c0-0.403-0.367-0.771-0.771-0.771h-9.969v-11.559c0-0.403-0.367-0.771-0.771-0.771h-12.329
	C944.911,376.583,944.862,376.583,944.814,376.588z M947.271,379.718l-0.048,0.771v1.542v0.771h0.771h1.589h0.771v-0.771v-1.542
	v-0.771h-0.771h-1.589H947.271z M951.894,379.718l-0.048,0.771v1.542v0.771h0.771h1.541h0.771v-0.771v-1.542v-0.771h-0.771h-1.541
	H951.894z M947.271,384.342l-0.048,0.771v1.541v0.771h0.771h1.589h0.771v-0.771v-1.541v-0.771h-0.771h-1.589H947.271z
	 M951.894,384.342l-0.048,0.771v1.541v0.771h0.771h1.541h0.771v-0.771v-1.541v-0.771h-0.771h-1.541H951.894z M947.271,388.965
	l-0.048,0.771v1.542v0.771h0.771h1.589h0.771v-0.771v-1.542v-0.771h-0.771h-1.589H947.271z M951.894,388.965l-0.048,0.771v1.542
	v0.771h0.771h1.541h0.771v-0.771v-1.542v-0.771h-0.771h-1.541H951.894z M959.551,392.047v1.541h6.165v-1.541H959.551z
	 M947.271,393.588l-0.048,0.771v1.541v0.771h0.771h1.589h0.771V395.9v-1.541v-0.771h-0.771h-1.589H947.271z M951.894,393.588
	l-0.048,0.771v1.541v0.771h0.771h1.541h0.771V395.9v-1.541v-0.771h-0.771h-1.541H951.894z M959.551,395.129v1.541h6.165v-1.541
	H959.551z M947.271,398.211l-0.048,0.771v1.542v0.771h0.771h1.589h0.771v-0.771v-1.542v-0.771h-0.771h-1.589H947.271z
	 M951.894,398.211l-0.048,0.771v1.542v0.771h0.771h1.541h0.771v-0.771v-1.542v-0.771h-0.771h-1.541H951.894z M959.551,398.211v1.542
	h6.165v-1.542H959.551z M959.551,401.294v1.541h6.165v-1.541H959.551z M947.271,402.835l-0.048,0.771v1.541v0.771h0.771h1.589h0.771
	v-0.771v-1.541v-0.771h-0.771h-1.589H947.271z M951.894,402.835l-0.048,0.771v1.541v0.771h0.771h1.541h0.771v-0.771v-1.541v-0.771
	h-0.771h-1.541H951.894z M927.236,404.376v1.541h15.363v-1.541H927.236z M959.551,404.376v1.541h6.165v-1.541H959.551z
	 M927.236,407.458v1.541h15.363v-1.541H927.236z M927.236,410.541v1.541h15.363v-1.541H927.236z"/>
<rect x="921.5" y="417.475" width="50" height="1.542"/>
</svg>
