<?xml version="1.0" encoding="utf-8"?>
<!-- Generator: Adobe Illustrator 15.0.2, SVG Export Plug-In  -->
<!DOCTYPE svg PUBLIC "-//W3C//DTD SVG 1.1//EN" "http://www.w3.org/Graphics/SVG/1.1/DTD/svg11.dtd" [
	<!ENTITY ns_flows "http://ns.adobe.com/Flows/1.0/">
]>
<svg version="1.1"
	 xmlns="http://www.w3.org/2000/svg" xmlns:xlink="http://www.w3.org/1999/xlink" xmlns:a="http://ns.adobe.com/AdobeSVGViewerExtensions/3.0/"
	 x="0px" y="0px" width="25px" height="25px" viewBox="0 0 25 25" overflow="visible" enable-background="new 0 0 25 25"
	 xml:space="preserve">
<defs>
</defs>
<path fill="#A4D5F5" d="M16.701,16.707l-1.414-1.414c3.036-3.036,3.036-7.976,0-11.012C13.816,2.811,11.86,2,9.78,2
	c-2.08,0-4.036,0.811-5.506,2.281c-3.035,3.036-3.035,7.976,0,11.012L2.86,16.707c-3.814-3.815-3.814-10.024,0-13.84
	C4.708,1.019,7.166,0,9.78,0c2.615,0,5.073,1.019,6.92,2.867C20.515,6.683,20.515,12.892,16.701,16.707z"/>
<rect x="4.659" y="6.666" transform="matrix(-0.7071 -0.7071 0.7071 -0.7071 7.6547 18.502)" fill="#A4D5F5" width="5.999" height="2"/>
</svg>
