<?xml version="1.0" encoding="utf-8"?>
<!-- Generator: Adobe Illustrator 15.0.2, SVG Export Plug-In  -->
<!DOCTYPE svg PUBLIC "-//W3C//DTD SVG 1.1//EN" "http://www.w3.org/Graphics/SVG/1.1/DTD/svg11.dtd" [
	<!ENTITY ns_flows "http://ns.adobe.com/Flows/1.0/">
]>
<svg version="1.1"
	 xmlns="http://www.w3.org/2000/svg" xmlns:xlink="http://www.w3.org/1999/xlink" xmlns:a="http://ns.adobe.com/AdobeSVGViewerExtensions/3.0/"
	 x="0px" y="0px" width="20px" height="26px" viewBox="-0.942 -0.883 20 26"
	 overflow="visible" enable-background="new -0.942 -0.883 20 26" xml:space="preserve">
<defs>
</defs>
<polygon fill="#C4C4C5" points="7.15,7.439 0,7.439 0,9.959 7.15,9.959 8.363,8.699 "/>
<polygon fill="#C4C4C5" points="9.38,11.158 0,11.158 0,13.678 9.38,13.678 10.591,12.418 "/>
<polygon fill="#C4C4C5" points="12.019,14.877 0,14.877 0,17.396 12.019,17.396 13.23,16.137 "/>
<polygon fill="#C4C4C5" points="14.525,18.596 0,18.596 0,21.115 14.525,21.115 15.736,19.855 "/>
<polygon fill="#C4C4C5" points="16.904,22.314 0,22.314 0,24.834 16.904,24.834 18.117,23.575 "/>
<polygon fill="#C4C4C5" points="4.426,3.719 0,3.719 0,6.239 4.426,6.239 5.637,4.979 "/>
<polygon fill="#C4C4C5" points="2.303,0 0,0 0,2.52 2.303,2.52 3.515,1.26 "/>
</svg>
