<?xml version="1.0" encoding="utf-8"?>
<!-- Generator: Adobe Illustrator 15.0.2, SVG Export Plug-In  -->
<!DOCTYPE svg PUBLIC "-//W3C//DTD SVG 1.1//EN" "http://www.w3.org/Graphics/SVG/1.1/DTD/svg11.dtd" [
	<!ENTITY ns_flows "http://ns.adobe.com/Flows/1.0/">
]>
<svg version="1.1"
	 xmlns="http://www.w3.org/2000/svg" xmlns:xlink="http://www.w3.org/1999/xlink" xmlns:a="http://ns.adobe.com/AdobeSVGViewerExtensions/3.0/"
	 x="0px" y="0px" width="28px" height="31px" viewBox="-0.988 -0.301 28 31"
	 overflow="visible" enable-background="new -0.988 -0.301 28 31" xml:space="preserve">
<defs>
</defs>
<path fill="#2D3580" d="M20.659,11.808l-7.602,5.136l-0.001-9.178c-2.069,0-3.979,0.688-5.514,1.846
	C7.506,9.637,7.475,9.665,7.441,9.689C7.36,9.752,7.278,9.816,7.197,9.882c-0.074,0.066-0.153,0.128-0.225,0.197
	c-0.035,0.029-0.067,0.059-0.101,0.084c-0.093,0.087-0.185,0.175-0.273,0.265c-0.015,0.01-0.025,0.025-0.04,0.037
	c-0.096,0.098-0.191,0.198-0.284,0.299c0,0-0.009,0.01-0.015,0.017c-0.095,0.105-0.188,0.211-0.277,0.318
	c-0.006,0.004-0.009,0.009-0.013,0.016c-0.086,0.105-0.169,0.211-0.252,0.317c-0.007,0.015-0.015,0.023-0.023,0.034
	c-0.077,0.101-0.146,0.203-0.218,0.305c-0.015,0.023-0.03,0.046-0.047,0.07c-0.061,0.092-0.12,0.181-0.176,0.275
	c-0.023,0.037-0.048,0.077-0.068,0.115c-0.048,0.076-0.093,0.159-0.137,0.236c-0.033,0.057-0.064,0.114-0.096,0.172
	c-0.032,0.063-0.062,0.123-0.096,0.187c-0.038,0.077-0.074,0.156-0.113,0.233c-0.019,0.045-0.041,0.087-0.059,0.132
	c-0.045,0.098-0.087,0.195-0.126,0.293c-0.012,0.029-0.022,0.058-0.034,0.086c-0.044,0.111-0.087,0.228-0.13,0.341
	c-0.004,0.018-0.01,0.035-0.014,0.05c-0.044,0.124-0.087,0.25-0.123,0.379c-0.001,0.007-0.004,0.019-0.009,0.026
	c-0.036,0.131-0.072,0.268-0.107,0.401c-0.001,0.009-0.003,0.021-0.006,0.029c-0.03,0.129-0.058,0.261-0.085,0.397
	c-0.004,0.016-0.01,0.037-0.013,0.059c-0.02,0.119-0.042,0.242-0.06,0.366c-0.006,0.045-0.009,0.09-0.016,0.133
	c-0.015,0.099-0.029,0.198-0.038,0.299c-0.009,0.099-0.016,0.199-0.022,0.3c-0.003,0.045-0.007,0.089-0.011,0.136
	c-0.03,0.614-0.002,1.235,0.093,1.849c0.003,0.026,0.009,0.051,0.014,0.074c0.02,0.121,0.039,0.243,0.066,0.366
	c0.009,0.048,0.019,0.095,0.028,0.143c0.024,0.095,0.043,0.192,0.07,0.29c0.016,0.066,0.036,0.131,0.055,0.198
	c0.019,0.075,0.041,0.152,0.064,0.229c0.024,0.083,0.052,0.163,0.08,0.246c0.021,0.059,0.036,0.117,0.06,0.172
	c0.036,0.101,0.073,0.201,0.114,0.301c0.015,0.036,0.031,0.077,0.048,0.113c0.05,0.122,0.104,0.243,0.158,0.36
	c0.007,0.017,0.013,0.033,0.022,0.048c0.266,0.562,0.589,1.096,0.958,1.591c0.023,0.026,0.045,0.053,0.065,0.08
	c0.07,0.088,0.136,0.177,0.21,0.261c0.06,0.073,0.123,0.145,0.182,0.216c0.037,0.036,0.067,0.077,0.101,0.112
	c0.083,0.087,0.167,0.176,0.252,0.262c0.017,0.018,0.032,0.034,0.047,0.05c0.096,0.097,0.194,0.188,0.291,0.277
	c0.009,0.006,0.016,0.018,0.023,0.024c0.102,0.091,0.206,0.181,0.309,0.266c0.009,0.009,0.019,0.016,0.028,0.021
	c0.102,0.086,0.205,0.168,0.312,0.246c0.012,0.009,0.027,0.021,0.042,0.029c0.096,0.076,0.196,0.146,0.295,0.213
	c0.026,0.018,0.051,0.036,0.075,0.051c0.092,0.062,0.181,0.118,0.27,0.174c0.042,0.024,0.083,0.051,0.122,0.075
	c0.076,0.045,0.153,0.091,0.229,0.132c0.061,0.034,0.12,0.066,0.178,0.097c0.062,0.032,0.123,0.064,0.181,0.095
	c0.082,0.038,0.156,0.079,0.239,0.114c0.044,0.021,0.089,0.042,0.13,0.062c0.097,0.041,0.193,0.085,0.294,0.125
	c0.029,0.011,0.054,0.022,0.086,0.032c0.112,0.047,0.224,0.088,0.341,0.13c0.019,0.004,0.032,0.009,0.05,0.016
	c0.126,0.041,0.251,0.085,0.378,0.12c0.009,0.006,0.02,0.009,0.029,0.01c0.131,0.036,0.262,0.074,0.394,0.106
	c0.015,0.003,0.026,0.005,0.036,0.006c0.13,0.032,0.26,0.062,0.392,0.089c0.021,0.003,0.044,0.008,0.065,0.01
	c0.118,0.022,0.241,0.044,0.363,0.059c0.047,0.011,0.093,0.015,0.14,0.021c0.095,0.015,0.192,0.024,0.289,0.032
	c0.107,0.013,0.213,0.019,0.321,0.026c0.038,0.004,0.074,0.007,0.115,0.01c0.615,0.031,1.234,0.002,1.849-0.095
	c0.023-0.003,0.044-0.006,0.066-0.009c0.125-0.021,0.252-0.044,0.376-0.068c0.045-0.009,0.092-0.021,0.132-0.029
	c0.101-0.021,0.203-0.045,0.299-0.071c0.065-0.015,0.13-0.032,0.192-0.051c0.08-0.023,0.156-0.044,0.236-0.068
	c0.081-0.022,0.163-0.053,0.246-0.08c0.059-0.02,0.115-0.037,0.172-0.059c0.103-0.035,0.204-0.076,0.303-0.118
	c0.038-0.013,0.075-0.027,0.109-0.041c0.127-0.052,0.252-0.107,0.373-0.167c0.012-0.005,0.025-0.008,0.035-0.014
	c0.565-0.27,1.102-0.594,1.595-0.966c0.008-0.004,0.014-0.013,0.021-0.018c0.11-0.081,0.217-0.167,0.323-0.255
	c0.059-0.051,0.119-0.104,0.177-0.154c0.049-0.044,0.101-0.086,0.149-0.13c0.08-0.074,0.159-0.149,0.234-0.226
	c0.028-0.026,0.053-0.05,0.079-0.076c0.083-0.084,0.171-0.176,0.254-0.265c0.016-0.018,0.029-0.035,0.046-0.05
	c0.083-0.096,0.168-0.192,0.25-0.29c0.013-0.015,0.025-0.029,0.037-0.044c0.08-0.096,0.153-0.195,0.23-0.294
	c0.015-0.021,0.029-0.038,0.046-0.06c0.069-0.094,0.134-0.186,0.198-0.278c0.022-0.032,0.043-0.065,0.066-0.097
	c0.054-0.081,0.109-0.164,0.162-0.252c0.026-0.046,0.057-0.09,0.086-0.138c0.041-0.072,0.078-0.142,0.12-0.212
	c0.035-0.065,0.071-0.131,0.108-0.196c0.029-0.054,0.054-0.106,0.083-0.165c0.042-0.083,0.084-0.167,0.124-0.256
	c0.019-0.035,0.036-0.07,0.051-0.109c0.047-0.104,0.093-0.207,0.136-0.311c0.009-0.023,0.016-0.047,0.023-0.068
	c0.048-0.118,0.095-0.239,0.138-0.36c0.003-0.009,0.006-0.021,0.008-0.03c0.046-0.13,0.09-0.263,0.13-0.398
	c0.003-0.003,0.003-0.005,0.003-0.005c0.04-0.141,0.075-0.28,0.111-0.419c0.002-0.006,0.002-0.007,0.003-0.012
	c0.032-0.135,0.062-0.276,0.091-0.413c0.001-0.015,0.006-0.025,0.007-0.04c0.021-0.129,0.046-0.258,0.063-0.389
	c0.004-0.033,0.007-0.07,0.015-0.106c0.016-0.106,0.028-0.213,0.037-0.322c0.01-0.087,0.016-0.179,0.021-0.265
	c0.004-0.056,0.011-0.115,0.013-0.172C22.32,15.486,21.818,13.522,20.659,11.808z"/>
<path fill="#2D3580" d="M14.844,4.014V3.3h0.682c0.912,0,1.652-0.739,1.652-1.652c0-0.909-0.74-1.648-1.652-1.648h-4.938
	C9.675,0,8.934,0.739,8.934,1.648c0,0.914,0.742,1.652,1.654,1.652h0.629v0.724C8.54,4.399,6.125,5.592,4.227,7.333L3.811,6.818
	l0.195-0.156c0.332-0.271,0.195-0.997-0.309-1.626c-0.504-0.625-1.188-0.918-1.52-0.647L0.36,5.847
	c-0.332,0.27-0.196,0.997,0.308,1.626C1.175,8.099,1.854,8.392,2.19,8.12l0.194-0.156l0.573,0.714C1.113,10.928,0,13.806,0,16.944
	C0,24.157,5.848,30,13.056,30c7.21,0,13.056-5.843,13.056-13.056C26.112,10.342,21.21,4.887,14.844,4.014z M13.056,27.709
	c-5.943,0-10.764-4.815-10.764-10.765c0-5.943,4.82-10.763,10.764-10.763c5.946,0,10.765,4.82,10.765,10.763
	C23.82,22.894,19.002,27.709,13.056,27.709z"/>
</svg>
