<?xml version="1.0" encoding="utf-8"?>
<!-- Generator: Adobe Illustrator 15.0.2, SVG Export Plug-In  -->
<!DOCTYPE svg PUBLIC "-//W3C//DTD SVG 1.1//EN" "http://www.w3.org/Graphics/SVG/1.1/DTD/svg11.dtd" [
	<!ENTITY ns_flows "http://ns.adobe.com/Flows/1.0/">
]>
<svg version="1.1"
	 xmlns="http://www.w3.org/2000/svg" xmlns:xlink="http://www.w3.org/1999/xlink" xmlns:a="http://ns.adobe.com/AdobeSVGViewerExtensions/3.0/"
	 x="0px" y="0px" width="35px" height="30px" viewBox="-2.592 -3.879 35 30"
	 overflow="visible" enable-background="new -2.592 -3.879 35 30" xml:space="preserve">
<defs>
</defs>
<polygon fill="#C4C4C5" points="18.803,7.634 10.908,7.634 10.908,10.158 18.803,10.158 20.141,8.896 "/>
<polygon fill="#C4C4C5" points="21.264,11.359 10.908,11.359 10.908,13.883 21.264,13.883 22.602,12.621 "/>
<polygon fill="#C4C4C5" points="24.177,15.084 10.908,15.084 10.908,17.609 24.177,17.609 25.515,16.347 "/>
<polygon fill="#C4C4C5" points="26.942,18.81 10.908,18.81 10.908,21.334 26.942,21.334 28.28,20.072 "/>
<polygon fill="#C4C4C5" points="29.57,22.535 10.908,22.535 10.908,25.059 29.57,25.059 30.908,23.798 "/>
<polygon fill="#7AD3AB" points="15.795,3.908 10.908,3.908 10.908,6.432 15.795,6.432 17.131,5.17 "/>
<polygon fill="#C4C4C5" points="13.45,0.182 10.908,0.182 10.908,2.707 13.45,2.707 14.789,1.445 "/>
<g>
	<g>
		<path fill="#868685" d="M0,0h3.567C4.111,0,4.615,0.04,5.08,0.12c0.463,0.079,0.869,0.221,1.215,0.424
			c0.348,0.202,0.619,0.469,0.816,0.8s0.297,0.747,0.297,1.248c0,0.234-0.035,0.47-0.105,0.704C7.234,3.53,7.129,3.749,6.992,3.951
			c-0.139,0.203-0.32,0.385-0.545,0.545C6.224,4.655,5.962,4.773,5.664,4.848v0.064c0.746,0.139,1.309,0.405,1.688,0.8
			S7.92,6.655,7.92,7.359c0,0.534-0.105,0.992-0.312,1.376C7.398,9.12,7.111,9.438,6.744,9.688
			c-0.369,0.251-0.798,0.438-1.289,0.561c-0.49,0.122-1.018,0.184-1.584,0.184H0V0z M3.455,4.208c0.576,0,0.995-0.115,1.256-0.345
			c0.262-0.229,0.393-0.541,0.393-0.936S4.971,2.25,4.703,2.08C4.438,1.909,4.025,1.823,3.472,1.823h-1.12v2.385H3.455z M3.68,8.607
			c1.291,0,1.936-0.475,1.936-1.424c0-0.458-0.16-0.792-0.479-1C4.815,5.976,4.33,5.872,3.68,5.872H2.352v2.735H3.68z"/>
	</g>
</g>
</svg>
