<?xml version="1.0" encoding="utf-8"?>
<!-- Generator: Adobe Illustrator 15.0.2, SVG Export Plug-In  -->
<!DOCTYPE svg PUBLIC "-//W3C//DTD SVG 1.1//EN" "http://www.w3.org/Graphics/SVG/1.1/DTD/svg11.dtd" [
	<!ENTITY ns_flows "http://ns.adobe.com/Flows/1.0/">
]>
<svg version="1.1"
	 xmlns="http://www.w3.org/2000/svg" xmlns:xlink="http://www.w3.org/1999/xlink" xmlns:a="http://ns.adobe.com/AdobeSVGViewerExtensions/3.0/"
	 x="0px" y="0px" width="35px" height="30px" viewBox="-3.308 -4.061 35 30"
	 overflow="visible" enable-background="new -3.308 -4.061 35 30" xml:space="preserve">
<defs>
</defs>
<polygon fill="#C4C4C5" points="18.346,7.452 10.452,7.452 10.452,9.976 18.346,9.976 19.684,8.714 "/>
<polygon fill="#C4C4C5" points="20.807,11.177 10.452,11.177 10.452,13.701 20.807,13.701 22.145,12.439 "/>
<polygon fill="#FF7767" points="23.721,14.902 10.452,14.902 10.452,17.427 23.721,17.427 25.059,16.165 "/>
<polygon fill="#C4C4C5" points="26.487,18.627 10.452,18.627 10.452,21.152 26.487,21.152 27.825,19.89 "/>
<polygon fill="#C4C4C5" points="29.114,22.353 10.452,22.353 10.452,24.876 29.114,24.876 30.452,23.616 "/>
<polygon fill="#C4C4C5" points="15.338,3.726 10.452,3.726 10.452,6.25 15.338,6.25 16.674,4.988 "/>
<polygon fill="#C4C4C5" points="12.994,0 10.452,0 10.452,2.524 12.994,2.524 14.333,1.263 "/>
<g>
	<g>
		<path fill="#868685" d="M0,10.818h6.527v1.983H2.352v2.097h3.553v1.968H2.352v2.399h4.336v1.984H0V10.818z"/>
	</g>
</g>
</svg>
