<?xml version="1.0" encoding="utf-8"?>
<!-- Generator: Adobe Illustrator 15.0.2, SVG Export Plug-In  -->
<!DOCTYPE svg PUBLIC "-//W3C//DTD SVG 1.1//EN" "http://www.w3.org/Graphics/SVG/1.1/DTD/svg11.dtd" [
	<!ENTITY ns_flows "http://ns.adobe.com/Flows/1.0/">
]>
<svg version="1.1"
	 xmlns="http://www.w3.org/2000/svg" xmlns:xlink="http://www.w3.org/1999/xlink" xmlns:a="http://ns.adobe.com/AdobeSVGViewerExtensions/3.0/"
	 x="0px" y="0px" width="35px" height="30px" viewBox="-1.519 -0.879 35 30"
	 overflow="visible" enable-background="new -1.519 -0.879 35 30" xml:space="preserve">
<defs>
</defs>
<polygon fill="#C4C4C5" points="19.875,10.634 11.981,10.634 11.981,13.158 19.875,13.158 21.213,11.896 "/>
<polygon fill="#C4C4C5" points="22.336,14.359 11.981,14.359 11.981,16.883 22.336,16.883 23.674,15.621 "/>
<polygon fill="#C4C4C5" points="25.25,18.084 11.981,18.084 11.981,20.609 25.25,20.609 26.587,19.347 "/>
<polygon fill="#C4C4C5" points="28.015,21.81 11.981,21.81 11.981,24.334 28.015,24.334 29.353,23.072 "/>
<polygon fill="#C4C4C5" points="30.643,25.535 11.981,25.535 11.981,28.059 30.643,28.059 31.981,26.798 "/>
<polygon fill="#C4C4C5" points="16.868,6.908 11.981,6.908 11.981,9.432 16.868,9.432 18.204,8.17 "/>
<polygon fill="#A4D5F5" points="14.523,3.182 11.981,3.182 11.981,5.707 14.523,5.707 15.862,4.445 "/>
<g>
	<g>
		<path fill="#868685" d="M6.224,7.951H3.04l-0.64,2.48H0L3.264,0h2.832L9.36,10.432H6.864L6.224,7.951z M5.744,6.111l-0.24-0.96
			C5.354,4.629,5.21,4.074,5.072,3.487C4.934,2.901,4.795,2.336,4.656,1.792H4.592C4.464,2.347,4.333,2.914,4.2,3.496
			C4.067,4.077,3.925,4.629,3.776,5.151L3.52,6.111H5.744z"/>
	</g>
</g>
</svg>
