<?xml version="1.0" encoding="utf-8"?>
<!-- Generator: Adobe Illustrator 15.0.2, SVG Export Plug-In  -->
<!DOCTYPE svg PUBLIC "-//W3C//DTD SVG 1.1//EN" "http://www.w3.org/Graphics/SVG/1.1/DTD/svg11.dtd" [
	<!ENTITY ns_flows "http://ns.adobe.com/Flows/1.0/">
]>
<svg version="1.1"
	 xmlns="http://www.w3.org/2000/svg" xmlns:xlink="http://www.w3.org/1999/xlink" xmlns:a="http://ns.adobe.com/AdobeSVGViewerExtensions/3.0/"
	 x="0px" y="0px" width="35px" height="30px" viewBox="-2.769 -4.061 35 30"
	 overflow="visible" enable-background="new -2.769 -4.061 35 30" xml:space="preserve">
<defs>
</defs>
<polygon fill="#C4C4C5" points="19.044,7.452 11.149,7.452 11.149,9.976 19.044,9.976 20.382,8.714 "/>
<polygon fill="#FFCE5E" points="21.505,11.177 11.149,11.177 11.149,13.701 21.505,13.701 22.843,12.439 "/>
<polygon fill="#C4C4C5" points="24.418,14.902 11.149,14.902 11.149,17.427 24.418,17.427 25.756,16.165 "/>
<polygon fill="#C4C4C5" points="27.184,18.627 11.149,18.627 11.149,21.152 27.184,21.152 28.521,19.89 "/>
<polygon fill="#C4C4C5" points="29.812,22.353 11.149,22.353 11.149,24.876 29.812,24.876 31.149,23.616 "/>
<polygon fill="#C4C4C5" points="16.036,3.726 11.149,3.726 11.149,6.25 16.036,6.25 17.372,4.988 "/>
<polygon fill="#C4C4C5" points="13.691,0 11.149,0 11.149,2.524 13.691,2.524 15.03,1.263 "/>
<g>
	<g>
		<path fill="#868685" d="M0,7.818h2.944c0.8,0,1.521,0.102,2.16,0.304c0.64,0.203,1.189,0.515,1.647,0.936
			c0.459,0.422,0.811,0.958,1.057,1.608s0.369,1.424,0.369,2.32c0,0.896-0.123,1.675-0.369,2.336s-0.592,1.208-1.04,1.64
			s-0.983,0.755-1.608,0.968c-0.623,0.214-1.32,0.32-2.088,0.32H0V7.818z M2.801,16.345c0.447,0,0.854-0.059,1.216-0.176
			s0.672-0.307,0.928-0.568C5.201,15.34,5.4,14.997,5.545,14.57c0.144-0.427,0.216-0.955,0.216-1.584
			c0-0.619-0.072-1.139-0.216-1.561c-0.145-0.421-0.344-0.757-0.601-1.008c-0.256-0.25-0.565-0.43-0.928-0.536
			s-0.769-0.16-1.216-0.16H2.353v6.624H2.801z"/>
	</g>
</g>
</svg>
