<?xml version="1.0" encoding="utf-8"?>
<!-- Generator: Adobe Illustrator 15.0.2, SVG Export Plug-In  -->
<!DOCTYPE svg PUBLIC "-//W3C//DTD SVG 1.1//EN" "http://www.w3.org/Graphics/SVG/1.1/DTD/svg11.dtd" [
	<!ENTITY ns_flows "http://ns.adobe.com/Flows/1.0/">
]>
<svg version="1.1"
	 xmlns="http://www.w3.org/2000/svg" xmlns:xlink="http://www.w3.org/1999/xlink" xmlns:a="http://ns.adobe.com/AdobeSVGViewerExtensions/3.0/"
	 x="0px" y="0px" width="35px" height="30px" viewBox="-2.506 -4.061 35 30"
	 overflow="visible" enable-background="new -2.506 -4.061 35 30" xml:space="preserve">
<defs>
</defs>
<polygon fill="#119A73" points="19.115,7.452 11.221,7.452 11.221,9.976 19.115,9.976 20.453,8.714 "/>
<polygon fill="#C4C4C5" points="21.576,11.177 11.221,11.177 11.221,13.701 21.576,13.701 22.914,12.439 "/>
<polygon fill="#C4C4C5" points="24.489,14.902 11.221,14.902 11.221,17.427 24.489,17.427 25.827,16.165 "/>
<polygon fill="#C4C4C5" points="27.255,18.627 11.221,18.627 11.221,21.152 27.255,21.152 28.593,19.89 "/>
<polygon fill="#C4C4C5" points="29.883,22.353 11.221,22.353 11.221,24.876 29.883,24.876 31.221,23.616 "/>
<polygon fill="#C4C4C5" points="16.107,3.726 11.221,3.726 11.221,6.25 16.107,6.25 17.443,4.988 "/>
<polygon fill="#C4C4C5" points="13.763,0 11.221,0 11.221,2.524 13.763,2.524 15.102,1.263 "/>
<g>
	<g>
		<path fill="#868685" d="M0,9.097c0-0.863,0.133-1.634,0.4-2.312c0.266-0.678,0.627-1.251,1.08-1.72
			c0.453-0.47,0.98-0.827,1.584-1.072c0.602-0.245,1.24-0.368,1.912-0.368c0.65,0,1.24,0.136,1.768,0.408
			c0.527,0.271,0.969,0.589,1.32,0.952L6.768,6.442C6.502,6.196,6.232,6.004,5.96,5.866S5.371,5.658,5.008,5.658
			c-0.362,0-0.701,0.077-1.016,0.231c-0.314,0.155-0.59,0.376-0.824,0.664S2.75,7.194,2.616,7.61s-0.2,0.885-0.2,1.407
			c0,1.078,0.229,1.912,0.688,2.505c0.459,0.592,1.072,0.888,1.841,0.888c0.427,0,0.8-0.085,1.12-0.256s0.607-0.395,0.863-0.672
			l1.297,1.424c-0.438,0.512-0.936,0.896-1.496,1.151c-0.561,0.257-1.166,0.385-1.816,0.385c-0.672,0-1.307-0.115-1.904-0.345
			c-0.598-0.229-1.119-0.567-1.568-1.016c-0.447-0.448-0.799-1.005-1.055-1.672C0.128,10.743,0,9.972,0,9.097z"/>
	</g>
</g>
</svg>
