<?xml version="1.0" encoding="utf-8"?>
<!-- Generator: Adobe Illustrator 15.0.2, SVG Export Plug-In  -->
<!DOCTYPE svg PUBLIC "-//W3C//DTD SVG 1.1//EN" "http://www.w3.org/Graphics/SVG/1.1/DTD/svg11.dtd" [
	<!ENTITY ns_flows "http://ns.adobe.com/Flows/1.0/">
]>
<svg version="1.1"
	 xmlns="http://www.w3.org/2000/svg" xmlns:xlink="http://www.w3.org/1999/xlink" xmlns:a="http://ns.adobe.com/AdobeSVGViewerExtensions/3.0/"
	 x="0px" y="0px" width="35px" height="30px" viewBox="-3.246 -4.101 35 30"
	 overflow="visible" enable-background="new -3.246 -4.101 35 30" xml:space="preserve">
<defs>
</defs>
<polygon fill="#C4C4C5" points="18.155,7.452 10.261,7.452 10.261,9.976 18.155,9.976 19.493,8.714 "/>
<polygon fill="#C4C4C5" points="20.616,11.177 10.261,11.177 10.261,13.701 20.616,13.701 21.954,12.439 "/>
<polygon fill="#C4C4C5" points="23.529,14.902 10.261,14.902 10.261,17.427 23.529,17.427 24.867,16.165 "/>
<polygon fill="#CD4D3E" points="26.295,18.627 10.261,18.627 10.261,21.152 26.295,21.152 27.633,19.89 "/>
<polygon fill="#C4C4C5" points="28.923,22.353 10.261,22.353 10.261,24.876 28.923,24.876 30.261,23.616 "/>
<polygon fill="#C4C4C5" points="15.147,3.726 10.261,3.726 10.261,6.25 15.147,6.25 16.483,4.988 "/>
<polygon fill="#C4C4C5" points="12.803,0 10.261,0 10.261,2.524 12.803,2.524 14.142,1.263 "/>
<g>
	<g>
		<path fill="#868685" d="M0,14.674h6.576v1.982H2.352v2.416h3.617v1.984H2.352v4.049H0V14.674z"/>
	</g>
</g>
</svg>
