<?xml version="1.0" encoding="utf-8"?>
<!-- Generator: Adobe Illustrator 15.0.2, SVG Export Plug-In  -->
<!DOCTYPE svg PUBLIC "-//W3C//DTD SVG 1.1//EN" "http://www.w3.org/Graphics/SVG/1.1/DTD/svg11.dtd" [
	<!ENTITY ns_flows "http://ns.adobe.com/Flows/1.0/">
]>
<svg version="1.1"
	 xmlns="http://www.w3.org/2000/svg" xmlns:xlink="http://www.w3.org/1999/xlink" xmlns:a="http://ns.adobe.com/AdobeSVGViewerExtensions/3.0/"
	 x="0px" y="0px" width="51px" height="39px" viewBox="-0.031 -0.902 51 39"
	 overflow="visible" enable-background="new -0.031 -0.902 51 39" xml:space="preserve">
<defs>
</defs>
<path fill="#424242" d="M6.817,24.076C3.06,24.076,0,27.134,0,30.891v6.947h13.637v-6.947C13.637,27.134,10.579,24.076,6.817,24.076
	z M2.273,16.973c0-2.51,2.036-4.545,4.544-4.545c2.512,0,4.545,2.035,4.545,4.545c0,2.511-2.033,4.545-4.545,4.545
	C4.31,21.52,2.273,19.483,2.273,16.973z M43.182,24.076c-3.759,0-6.819,3.058-6.819,6.814v6.947H50v-6.947
	C50,27.134,46.94,24.076,43.182,24.076z M38.637,16.973c0-2.509,2.035-4.545,4.545-4.545c2.505,0,4.545,2.036,4.545,4.545
	c0,2.511-2.04,4.545-4.545,4.545C40.672,21.518,38.637,19.483,38.637,16.973z M25,11.646c-3.761,0-6.818,3.059-6.818,6.816v6.945
	h13.637v-6.941C31.818,14.705,28.761,11.646,25,11.646z M20.454,4.545C20.454,2.035,22.493,0,25,0c2.509,0,4.546,2.035,4.546,4.545
	S27.509,9.09,25,9.09C22.493,9.09,20.454,7.055,20.454,4.545z"/>
</svg>
