<?xml version="1.0" encoding="utf-8"?>
<!-- Generator: Adobe Illustrator 15.0.2, SVG Export Plug-In  -->
<!DOCTYPE svg PUBLIC "-//W3C//DTD SVG 1.0//EN" "http://www.w3.org/TR/2001/REC-SVG-20010904/DTD/svg10.dtd" [
	<!ENTITY ns_flows "http://ns.adobe.com/Flows/1.0/">
]>
<svg version="1.0"
	 xmlns="http://www.w3.org/2000/svg" xmlns:xlink="http://www.w3.org/1999/xlink" xmlns:a="http://ns.adobe.com/AdobeSVGViewerExtensions/3.0/"
	 x="0px" y="0px" width="50px" height="28px" viewBox="0 -0.8 50 28" overflow="visible" enable-background="new 0 -0.8 50 28"
	 xml:space="preserve">
<defs>
</defs>
<path fill="#2C3684" d="M25,0C11.2,0,0,11.2,0,25v1.5h50V25C50,11.2,38.8,0,25,0z M3,23.5C3.7,12,13.3,2.9,25,2.9S46.3,12,47,23.5H3
	z"/>
<path fill="#2C3684" d="M10.9,17.4l-2.4-1c-0.5-0.2-1.2,0-1.4,0.6s0,1.2,0.6,1.4l2.4,1c0.1,0.1,0.3,0.1,0.4,0.1c0.4,0,0.8-0.2,1-0.7
	C11.7,18.3,11.5,17.7,10.9,17.4z"/>
<path fill="#2C3684" d="M14,9.8c-0.4-0.5-1.1-0.5-1.5-0.1c-0.5,0.4-0.5,1.1-0.1,1.5l1.7,2c0.2,0.3,0.5,0.4,0.8,0.4
	c0.2,0,0.5-0.1,0.7-0.2c0.5-0.4,0.5-1.1,0.1-1.5L14,9.8z"/>
<path fill="#2C3684" d="M21.9,6.5c-0.1-0.6-0.7-1-1.3-0.8c-0.6,0.1-0.9,0.7-0.8,1.3l0.6,2.6c0.1,0.5,0.6,0.8,1.1,0.8
	c0.1,0,0.2,0,0.2,0c0.6-0.1,1-0.7,0.8-1.3L21.9,6.5z"/>
<path fill="#2C3684" d="M29.7,5.7c-0.6-0.1-1.2,0.2-1.3,0.8L27.7,9c-0.1,0.6,0.2,1.2,0.8,1.3c0.1,0,0.2,0,0.3,0c0.5,0,0.9-0.3,1-0.8
	L30.4,7C30.6,6.4,30.2,5.8,29.7,5.7z"/>
<path fill="#2C3684" d="M36.2,10l-1.7,2c-0.4,0.5-0.3,1.1,0.1,1.5c0.2,0.2,0.5,0.3,0.7,0.3c0.3,0,0.6-0.1,0.8-0.4l1.7-2
	c0.4-0.5,0.3-1.1-0.1-1.5C37.2,9.5,36.6,9.5,36.2,10z"/>
<path fill="#2C3684" d="M38.6,19c0.2,0.4,0.6,0.7,1,0.7c0.1,0,0.3,0,0.4-0.1l2.4-1c0.6-0.2,0.8-0.9,0.6-1.4
	c-0.2-0.6-0.9-0.8-1.4-0.6l-2.4,1C38.6,17.8,38.3,18.4,38.6,19z"/>
<path fill="#FF7767" d="M29.7,23.7c0-2.6-2.1-4.7-4.7-4.7c-2.6,0-4.7,2.1-4.7,4.7"/>
<polygon fill="#FF7767" points="38,9.6 26.6,19.3 25,23.7 29.2,21.3 "/>
</svg>
