<?xml version="1.0" encoding="utf-8"?>
<!-- Generator: Adobe Illustrator 16.0.0, SVG Export Plug-In . SVG Version: 6.00 Build 0)  -->
<!DOCTYPE svg PUBLIC "-//W3C//DTD SVG 1.1//EN" "http://www.w3.org/Graphics/SVG/1.1/DTD/svg11.dtd">
<svg version="1.1" id="Layer_1" xmlns="http://www.w3.org/2000/svg" xmlns:xlink="http://www.w3.org/1999/xlink" x="0px" y="0px"
	 width="50px" height="40.414px" viewBox="935.004 411.793 50 40.414" enable-background="new 935.004 411.793 50 40.414"
	 xml:space="preserve">
<g>
	<path d="M984.659,431.176l-6.792-5.645v-12.654c0-0.29-0.093-0.526-0.279-0.712c-0.187-0.188-0.424-0.28-0.713-0.28h-5.955
		c-0.289,0-0.526,0.092-0.713,0.28c-0.186,0.186-0.279,0.422-0.279,0.712v6.048l-7.567-6.327c-0.661-0.538-1.446-0.806-2.356-0.806
		s-1.696,0.269-2.357,0.806l-22.298,18.577c-0.206,0.166-0.32,0.387-0.34,0.667c-0.021,0.279,0.051,0.521,0.217,0.729l1.923,2.295
		c0.166,0.186,0.382,0.3,0.652,0.341c0.248,0.021,0.496-0.051,0.744-0.216l21.12-17.61c0.188-0.158,0.494-0.158,0.683,0
		l21.119,17.61c0.165,0.144,0.382,0.216,0.651,0.216h0.093c0.27-0.041,0.486-0.155,0.652-0.341l1.922-2.295
		c0.165-0.207,0.238-0.45,0.218-0.729C984.979,431.563,984.866,431.341,984.659,431.176z"/>
	<path d="M960.347,420.108c-0.189-0.157-0.497-0.157-0.686,0c0,0-14.731,12.183-17.166,14.223c-0.188,0.158-0.341,0.487-0.341,0.731
		c-0.004,1.105-0.009,10.539-0.011,14.922c0,1.227,0.994,2.223,2.222,2.223h31.28c1.229,0,2.224-0.996,2.224-2.223v-14.828
		c0-0.245-0.153-0.572-0.342-0.729L960.347,420.108z M953.666,449.057l5.615-9.57l-5.287,1.404l11.616-12.282l-4.526,8.182
		l5.258-1.396L953.666,449.057z"/>
</g>
</svg>
