<?xml version="1.0" encoding="utf-8"?>
<!-- Generator: Adobe Illustrator 15.0.2, SVG Export Plug-In  -->
<!DOCTYPE svg PUBLIC "-//W3C//DTD SVG 1.1//EN" "http://www.w3.org/Graphics/SVG/1.1/DTD/svg11.dtd" [
	<!ENTITY ns_flows "http://ns.adobe.com/Flows/1.0/">
]>
<svg version="1.1"
	 xmlns="http://www.w3.org/2000/svg" xmlns:xlink="http://www.w3.org/1999/xlink" xmlns:a="http://ns.adobe.com/AdobeSVGViewerExtensions/3.0/"
	 x="0px" y="0px" width="39px" height="40px" viewBox="-0.812 -0.929 39 40"
	 overflow="visible" enable-background="new -0.812 -0.929 39 40" xml:space="preserve">
<defs>
</defs>
<path fill="#2D3580" d="M36.468,27.417c-0.11,0.356-0.527,0.695-0.93,0.649l-4.596-0.696c-0.496,0.679-1.002,1.302-1.596,1.872
	c0.447,1.414,0.977,2.723,1.525,4.062c0.09,0.211,0.119,0.453,0.053,0.668c-0.066,0.213-0.188,0.357-0.383,0.479
	c-0.805,0.584-5.09,3.08-5.897,2.83c-0.213-0.066-0.397-0.228-0.552-0.405l-2.48-3.578c-0.799,0.143-1.63,0.224-2.439,0.232
	c-0.615,1.396-1.234,2.896-2.056,4.202c-0.213,0.35-0.633,0.531-1.06,0.399l-5.27-1.633c-0.428-0.133-0.712-0.559-0.634-0.978
	l0.688-4.572c-0.662-0.465-1.285-0.971-1.863-1.54l-4.135,1.503c-0.209,0.09-0.445,0.096-0.659,0.029s-0.397-0.228-0.513-0.445
	c-0.904-1.528-2.11-3.516-2.681-5.201c-0.067-0.202-0.056-0.407,0.003-0.597c0.066-0.214,0.189-0.357,0.359-0.487
	c1.145-0.842,2.348-1.613,3.5-2.479c-0.168-0.884-0.258-1.77-0.245-2.651l-4.146-1.987c-0.381-0.196-0.548-0.664-0.423-1.068
	l1.632-5.269c0.111-0.356,0.527-0.695,0.906-0.656L7.2,10.805c0.473-0.686,1.002-1.302,1.603-1.896
	c-0.454-1.39-0.979-2.723-1.526-4.062c-0.09-0.21-0.126-0.43-0.06-0.644C7.282,3.99,7.43,3.853,7.6,3.723
	c0.812-0.607,5.09-3.08,5.897-2.829c0.213,0.066,0.398,0.228,0.543,0.429l2.488,3.554c0.799-0.143,1.631-0.223,2.439-0.232
	c0.615-1.396,1.235-2.895,2.057-4.202c0.213-0.35,0.632-0.532,1.061-0.399l5.27,1.632c0.426,0.133,0.71,0.559,0.633,0.977
	l-0.688,4.573c0.661,0.465,1.285,0.971,1.864,1.54l4.157-1.495c0.186-0.099,0.422-0.104,0.635-0.038
	c0.214,0.066,0.398,0.228,0.521,0.421c0.896,1.553,2.103,3.539,2.665,5.248c0.075,0.18,0.063,0.384,0.005,0.574
	c-0.066,0.213-0.188,0.357-0.359,0.487c-1.145,0.842-2.348,1.614-3.499,2.479c0.168,0.885,0.257,1.771,0.252,2.628l4.138,2.011
	c0.381,0.196,0.549,0.663,0.424,1.067L36.468,27.417z M20.952,13.012c-3.346-1.038-6.922,0.847-7.957,4.193
	c-1.038,3.347,0.846,6.922,4.193,7.959c3.346,1.037,6.922-0.847,7.957-4.192C26.184,17.625,24.3,14.049,20.952,13.012z"/>
</svg>
