<?xml version="1.0" encoding="utf-8"?>
<!-- Generator: Adobe Illustrator 15.0.2, SVG Export Plug-In  -->
<!DOCTYPE svg PUBLIC "-//W3C//DTD SVG 1.1//EN" "http://www.w3.org/Graphics/SVG/1.1/DTD/svg11.dtd" [
	<!ENTITY ns_flows "http://ns.adobe.com/Flows/1.0/">
]>
<svg version="1.1"
	 xmlns="http://www.w3.org/2000/svg" xmlns:xlink="http://www.w3.org/1999/xlink" xmlns:a="http://ns.adobe.com/AdobeSVGViewerExtensions/3.0/"
	 x="0px" y="0px" width="113px" height="163px" viewBox="-0.211 -0.788 113 163"
	 overflow="visible" enable-background="new -0.211 -0.788 113 163" xml:space="preserve">
<defs>
</defs>
<path fill="#2D3580" d="M56.383,161.234C25.293,161.234,0,135.939,0,104.847c0-10.486,3.078-20.956,8.902-30.275
	c1.002-1.568,2.536-3.751,4.478-6.514c8.98-12.78,25.697-36.568,32.85-60.421C47.746,2.623,52.485,0,56.383,0
	c3.986,0,8.75,2.63,10.144,7.657c7.151,23.809,23.854,47.587,32.828,60.363c1.954,2.781,3.497,4.978,4.496,6.544
	c5.832,9.149,8.915,19.621,8.915,30.284C112.766,135.939,87.473,161.234,56.383,161.234z M56.383,2c-3.16,0-7.005,2.134-8.238,6.213
	C40.9,32.374,24.062,56.335,15.016,69.208c-1.928,2.743-3.451,4.91-4.423,6.433C4.973,84.633,2,94.736,2,104.847
	c0,29.989,24.396,54.387,54.383,54.387c29.986,0,54.383-24.397,54.383-54.387c0-10.282-2.975-20.382-8.601-29.208
	c-0.977-1.529-2.508-3.709-4.447-6.47C88.68,56.301,71.855,32.35,64.604,8.211C63.473,4.126,59.613,2,56.383,2z"/>
</svg>
