<?xml version="1.0" encoding="utf-8"?>
<!-- Generator: Adobe Illustrator 16.0.0, SVG Export Plug-In . SVG Version: 6.00 Build 0)  -->
<!DOCTYPE svg PUBLIC "-//W3C//DTD SVG 1.1//EN" "http://www.w3.org/Graphics/SVG/1.1/DTD/svg11.dtd">
<svg version="1.1" id="Layer_1" xmlns="http://www.w3.org/2000/svg" xmlns:xlink="http://www.w3.org/1999/xlink" x="0px" y="0px"
	 width="100px" height="47.757px" viewBox="-51.619 31.161 100 47.757" enable-background="new -51.619 31.161 100 47.757"
	 xml:space="preserve">
<g>
	<path d="M6,66.729H-7.237c-0.306,0-0.596-0.135-0.794-0.369c-0.198-0.232-0.283-0.541-0.234-0.843
		c0.512-3.119,0.708-7.074,0.136-8.023c-0.84-1.394-1.973-2.659-3.069-3.884c-2.29-2.56-4.659-5.207-4.659-9.209
		c0-8.402,6.836-15.239,15.24-15.239c8.403,0,15.24,6.837,15.24,15.239c0,4.004-2.369,6.652-4.661,9.212
		c-1.097,1.224-2.229,2.489-3.068,3.882c-0.573,0.95-0.375,4.906,0.137,8.023c0.049,0.302-0.037,0.61-0.235,0.844
		C6.596,66.594,6.306,66.729,6,66.729z M-6.031,64.645H4.793C4.495,62.396,4.095,58.1,5.107,56.42c0.94-1.561,2.141-2.901,3.3-4.197
		c2.124-2.373,4.13-4.613,4.13-7.822c0-7.254-5.901-13.156-13.156-13.156S-13.775,37.146-13.775,44.4
		c0,3.207,2.005,5.448,4.128,7.821c1.16,1.297,2.36,2.636,3.301,4.196C-5.332,58.1-5.732,62.396-6.031,64.645z"/>
	<path d="M6.374,71.439H-7.549c-0.575,0-1.042-0.465-1.042-1.041s0.467-1.041,1.042-1.041H6.374c0.576,0,1.042,0.465,1.042,1.041
		S6.95,71.439,6.374,71.439z"/>
	<path d="M6.374,75.3H-7.549c-0.575,0-1.042-0.466-1.042-1.042s0.467-1.041,1.042-1.041H6.374c0.576,0,1.042,0.465,1.042,1.041
		S6.95,75.3,6.374,75.3z"/>
	<path d="M2.532,79.161h-6.24c-0.575,0-1.042-0.466-1.042-1.042s0.467-1.041,1.042-1.041h6.24c0.576,0,1.042,0.465,1.042,1.041
		S3.108,79.161,2.532,79.161z"/>
</g>
</svg>
