<?xml version="1.0" encoding="utf-8"?>
<!-- Generator: Adobe Illustrator 16.0.0, SVG Export Plug-In . SVG Version: 6.00 Build 0)  -->
<!DOCTYPE svg PUBLIC "-//W3C//DTD SVG 1.1//EN" "http://www.w3.org/Graphics/SVG/1.1/DTD/svg11.dtd">
<svg version="1.1" id="Layer_1" xmlns="http://www.w3.org/2000/svg" xmlns:xlink="http://www.w3.org/1999/xlink" x="0px" y="0px"
	 width="65.75px" height="33px" viewBox="-31.5 47.5 65.75 33" enable-background="new -31.5 47.5 65.75 33" xml:space="preserve">
<path d="M30,55v-3.5h-0.051c-0.252-2.244-2.139-4-4.449-4c-2.481,0-4.5,2.019-4.5,4.5v8.095c-0.391,0.236-0.836,0.405-1.506,0.405
	c-1.075,0-1.592-0.413-2.189-0.891c-0.651-0.52-1.389-1.109-2.815-1.109c-1.426,0-2.163,0.589-2.813,1.109
	c-0.598,0.478-1.113,0.891-2.189,0.891c-1.073,0-1.589-0.412-2.186-0.891C6.651,59.09,5.914,58.5,4.489,58.5
	c-1.425,0-2.162,0.59-2.812,1.109C1.08,60.087,0.563,60.5-0.511,60.5c-1.074,0-1.59-0.413-2.187-0.891
	C-3.348,59.09-4.085,58.5-5.51,58.5s-2.162,0.59-2.812,1.109c-0.597,0.478-1.113,0.891-2.187,0.891s-1.59-0.413-2.187-0.891
	c-0.65-0.52-1.387-1.109-2.812-1.109c-1.425,0-2.161,0.59-2.811,1.109c-0.597,0.478-1.112,0.891-2.186,0.891
	c-1.073,0-1.588-0.413-2.185-0.891c-0.569-0.455-1.204-0.964-2.31-1.083V55h-6.5v1h5.5v24.5h51V56h9.25v-1H30z M22,60.632
	c0.106-0.081,0.21-0.161,0.31-0.241c0.493-0.394,0.949-0.729,1.69-0.84V66h-2V60.632z M-25,79.5V59.551
	c0.738,0.11,1.193,0.445,1.685,0.84c0.649,0.52,1.386,1.109,2.81,1.109c1.425,0,2.161-0.59,2.811-1.109
	c0.597-0.478,1.112-0.891,2.186-0.891c1.074,0,1.59,0.413,2.187,0.891c0.65,0.52,1.387,1.109,2.812,1.109s2.162-0.59,2.812-1.109
	C-7.1,59.913-6.584,59.5-5.51,59.5s1.59,0.413,2.187,0.891c0.65,0.52,1.387,1.109,2.812,1.109c1.426,0,2.163-0.59,2.813-1.109
	C2.899,59.913,3.415,59.5,4.489,59.5c1.074,0,1.59,0.413,2.187,0.891C7.325,60.91,8.062,61.5,9.486,61.5
	c1.427,0,2.164-0.59,2.814-1.109c0.598-0.478,1.113-0.891,2.188-0.891c1.076,0,1.593,0.413,2.19,0.891
	c0.651,0.521,1.389,1.109,2.814,1.109c0.616,0,1.099-0.113,1.506-0.28v8.53h1V67h2v12.5H-25z M24,55v3.526
	c-0.91,0.098-1.501,0.459-2,0.837V52c0-1.93,1.57-3.5,3.5-3.5S29,50.07,29,52v3H24z"/>
</svg>
