<?xml version="1.0" encoding="utf-8"?>
<!-- Generator: Adobe Illustrator 16.0.0, SVG Export Plug-In . SVG Version: 6.00 Build 0)  -->
<!DOCTYPE svg PUBLIC "-//W3C//DTD SVG 1.1//EN" "http://www.w3.org/Graphics/SVG/1.1/DTD/svg11.dtd">
<svg version="1.1" id="Layer_1" xmlns="http://www.w3.org/2000/svg" xmlns:xlink="http://www.w3.org/1999/xlink" x="0px" y="0px"
	 width="26px" height="28px" viewBox="0 0 26 28" enable-background="new 0 0 26 28" xml:space="preserve">
<path fill="#424242" d="M4.404,11.119l-2.479,3.078H25l-2.484-3.078h-6.84V6.953c0-5.029-4.141-6.913-6.951-6.953H0v4.078h8.691
	C9.576,4.109,11.6,4.459,11.6,6.953v4.166H4.404z"/>
<path fill="#424242" d="M4.209,26.688l-0.498-0.041l0.326-3.985l0.5,0.041L4.209,26.688z M4.863,18.715l-0.498-0.041l0.328-3.986
	l0.498,0.041L4.863,18.715z"/>
<path fill="#424242" d="M22.818,26.688l-0.33-3.985l0.498-0.041l0.33,3.985L22.818,26.688z M22.162,18.715l-0.33-3.986l0.498-0.041
	l0.328,3.986L22.162,18.715z"/>
<path fill="#424242" d="M13.76,26.709h-0.5v-4h0.5V26.709z M13.76,18.709h-0.5v-4h0.5V18.709z"/>
<path fill="#424242" d="M17.988,26.711l-0.125-3.998l0.5-0.016l0.125,3.998L17.988,26.711z M17.736,18.715l-0.125-3.998l0.5-0.016
	l0.125,3.998L17.736,18.715z"/>
<path fill="#424242" d="M9.035,26.711l-0.5-0.016l0.125-3.998l0.5,0.016L9.035,26.711z M9.287,18.715l-0.5-0.016l0.125-3.998
	l0.5,0.016L9.287,18.715z"/>
<rect x="6.774" y="14.706" transform="matrix(-0.998 -0.0626 0.0626 -0.998 13.0495 31.8211)" fill="#424242" width="0.499" height="2"/>
<rect x="6.442" y="19.551" transform="matrix(-0.998 -0.0626 0.0626 -0.998 12.0569 42.3349)" fill="#424242" width="0.499" height="2.855"/>
<rect x="6.109" y="25.25" transform="matrix(-0.998 -0.0626 0.0626 -0.998 11.0615 52.8467)" fill="#424242" width="0.499" height="2"/>
<rect x="10.988" y="14.709" fill="#424242" width="0.5" height="2"/>
<rect x="10.988" y="19.555" fill="#424242" width="0.5" height="2.848"/>
<rect x="10.988" y="25.249" fill="#424242" width="0.5" height="2"/>
<rect x="15.537" y="14.709" fill="#424242" width="0.5" height="2"/>
<rect x="15.537" y="19.555" fill="#424242" width="0.5" height="2.848"/>
<rect x="15.537" y="25.249" fill="#424242" width="0.5" height="2"/>
<rect x="19.003" y="15.457" transform="matrix(-0.0625 -0.998 0.998 -0.0625 5.5778 36.6515)" fill="#424242" width="2" height="0.499"/>
<rect x="18.907" y="20.728" transform="matrix(-0.0629 -0.998 0.998 -0.0629 0.6787 42.5924)" fill="#424242" width="2.855" height="0.499"/>
<rect x="19.669" y="26" transform="matrix(-0.0625 -0.998 0.998 -0.0625 -4.2379 48.5192)" fill="#424242" width="2" height="0.499"/>
<g>
	<path fill="#424242" d="M22.651,0c-1.848,0-3.349,1.5-3.349,3.347c0,1.848,1.501,3.349,3.349,3.349c1.851,0,3.349-1.5,3.349-3.349
		C26,1.5,24.502,0,22.651,0z M24.483,2.018l-1.126,1.288c-0.094,0.105-0.224,0.16-0.354,0.16c-0.111,0-0.222-0.036-0.311-0.114
		c-0.196-0.171-0.214-0.468-0.043-0.665l1.126-1.291c0.169-0.194,0.469-0.214,0.662-0.043C24.634,1.524,24.654,1.821,24.483,2.018z"
		/>
</g>
</svg>
