<?xml version="1.0" encoding="utf-8"?>
<!-- Generator: Adobe Illustrator 15.0.2, SVG Export Plug-In  -->
<!DOCTYPE svg PUBLIC "-//W3C//DTD SVG 1.1//EN" "http://www.w3.org/Graphics/SVG/1.1/DTD/svg11.dtd" [
	<!ENTITY ns_flows "http://ns.adobe.com/Flows/1.0/">
]>
<svg version="1.1"
	 xmlns="http://www.w3.org/2000/svg" xmlns:xlink="http://www.w3.org/1999/xlink" xmlns:a="http://ns.adobe.com/AdobeSVGViewerExtensions/3.0/"
	 x="0px" y="0px" width="16px" height="17px" viewBox="-0.5 -0.803 16 17"
	 overflow="visible" enable-background="new -0.5 -0.803 16 17" xml:space="preserve">
<defs>
</defs>
<path fill="#7F7F83" d="M13.852,13.852h-4.04c0,1.271-1.037,2.309-2.309,2.309s-2.309-1.037-2.309-2.309h-4.04
	C0.523,13.852,0,13.328,0,12.697c2.354-1.993,3.463-5.05,3.463-8.08c0-2.029,1.281-3.184,3.247-3.418
	C6.664,1.101,6.637,0.983,6.637,0.865C6.637,0.388,7.025,0,7.503,0s0.866,0.388,0.866,0.865c0,0.118-0.027,0.235-0.072,0.334
	c1.966,0.234,3.247,1.389,3.247,3.418c0,3.03,1.109,6.087,3.463,8.08C15.006,13.328,14.483,13.852,13.852,13.852z M7.503,15.15
	c-0.712,0-1.299-0.586-1.299-1.299c0-0.081-0.063-0.145-0.144-0.145s-0.144,0.063-0.144,0.145c0,0.875,0.712,1.587,1.587,1.587
	c0.081,0,0.145-0.062,0.145-0.144C7.647,15.213,7.584,15.15,7.503,15.15z"/>
</svg>
