<?xml version="1.0" encoding="utf-8"?>
<!-- Generator: Adobe Illustrator 15.0.2, SVG Export Plug-In  -->
<!DOCTYPE svg PUBLIC "-//W3C//DTD SVG 1.1//EN" "http://www.w3.org/Graphics/SVG/1.1/DTD/svg11.dtd" [
	<!ENTITY ns_flows "http://ns.adobe.com/Flows/1.0/">
]>
<svg version="1.1"
	 xmlns="http://www.w3.org/2000/svg" xmlns:xlink="http://www.w3.org/1999/xlink" xmlns:a="http://ns.adobe.com/AdobeSVGViewerExtensions/3.0/"
	 x="0px" y="0px" width="50px" height="50px" viewBox="-13 -13 50 50" overflow="visible" enable-background="new -13 -13 50 50"
	 xml:space="preserve">
<defs>
</defs>
<path fill="#7AD3AB" d="M12,0C5.373,0,0,5.373,0,12c0,6.627,5.373,12,12,12s12-5.373,12-12C24,5.373,18.627,0,12,0z M16.299,6.255
	c0.816,0,1.478,0.662,1.478,1.478S17.115,9.21,16.299,9.21c-0.815,0-1.478-0.662-1.478-1.478S15.483,6.255,16.299,6.255z
	 M7.699,6.255c0.817,0,1.479,0.662,1.479,1.478S8.517,9.21,7.699,9.21c-0.815,0-1.478-0.662-1.478-1.478S6.884,6.255,7.699,6.255z
	 M18.58,14.796c-1.123,2.653-3.709,4.368-6.589,4.368c-2.937,0-5.619-1.841-6.675-4.58c-0.162-0.418,0.046-0.887,0.464-1.047
	c0.416-0.16,0.886,0.047,1.046,0.464c0.817,2.12,2.893,3.543,5.165,3.543c2.228,0,4.229-1.326,5.098-3.38
	c0.175-0.412,0.653-0.602,1.062-0.43C18.562,13.908,18.755,14.385,18.58,14.796z"/>
</svg>
