<?xml version="1.0" encoding="utf-8"?>
<!-- Generator: Adobe Illustrator 15.0.2, SVG Export Plug-In  -->
<!DOCTYPE svg PUBLIC "-//W3C//DTD SVG 1.1//EN" "http://www.w3.org/Graphics/SVG/1.1/DTD/svg11.dtd" [
	<!ENTITY ns_flows "http://ns.adobe.com/Flows/1.0/">
]>
<svg version="1.1"
	 xmlns="http://www.w3.org/2000/svg" xmlns:xlink="http://www.w3.org/1999/xlink" xmlns:a="http://ns.adobe.com/AdobeSVGViewerExtensions/3.0/"
	 x="0px" y="0px" width="50px" height="50px" viewBox="-16.664 -15 50 50"
	 overflow="visible" enable-background="new -16.664 -15 50 50" xml:space="preserve">
<defs>
</defs>
<path fill="#7F7F83" d="M16.338,18.933h-4.625v-1.808h4.625c0.184,0,0.334-0.15,0.334-0.336s-0.15-0.334-0.334-0.334h-4.625v-0.062
	c0-0.186-0.15-0.336-0.334-0.336h-1.74v-0.795c0.2-0.037,0.4-0.079,0.596-0.133c1.986-0.531,3.646-1.805,4.672-3.584
	c1.027-1.78,1.301-3.854,0.771-5.84C14.777,2.346,11.721,0,8.25,0C7.577,0,6.906,0.089,6.251,0.264
	C4.268,0.797,2.608,2.07,1.58,3.849c-1.031,1.78-1.303,3.854-0.77,5.839c0.779,2.901,3.165,5.044,6.039,5.574v0.794h-1.74
	c-0.187,0-0.336,0.15-0.336,0.336v0.062H0.335C0.15,16.455,0,16.604,0,16.789s0.15,0.336,0.335,0.336h4.438v1.808H0.335
	C0.15,18.933,0,19.082,0,19.268s0.15,0.334,0.335,0.334h4.438v0.063C4.773,19.851,4.923,20,5.109,20h6.27
	c0.184,0,0.334-0.149,0.334-0.335v-0.063h4.625c0.184,0,0.334-0.148,0.334-0.334S16.521,18.933,16.338,18.933z M1.459,9.515
	C0.973,7.703,1.223,5.81,2.16,4.184c0.938-1.625,2.452-2.787,4.266-3.272c0.598-0.16,1.211-0.24,1.824-0.24
	c3.17,0,5.957,2.142,6.779,5.208c0.486,1.813,0.236,3.707-0.701,5.331c-0.939,1.624-2.454,2.786-4.268,3.272
	c-0.441,0.118-0.896,0.193-1.351,0.224c-0.493,0.03-0.991,0.01-1.474-0.065c-0.01,0-0.014,0.002-0.021,0.002
	C4.482,14.238,2.188,12.246,1.459,9.515z M8.965,15.36v0.695H7.52v-0.7c0.236,0.023,0.479,0.037,0.719,0.037
	c0.207,0,0.41-0.012,0.613-0.028C8.891,15.361,8.928,15.363,8.965,15.36z M6.131,19.328H5.444v-2.602h0.687V19.328z M9.684,19.328
	H6.805v-2.602h2.879V19.328z M11.044,19.328h-0.691v-2.602h0.691V19.328z"/>
</svg>
