<?xml version="1.0" encoding="utf-8"?>
<!-- Generator: Adobe Illustrator 15.0.2, SVG Export Plug-In  -->
<!DOCTYPE svg PUBLIC "-//W3C//DTD SVG 1.1//EN" "http://www.w3.org/Graphics/SVG/1.1/DTD/svg11.dtd" [
	<!ENTITY ns_flows "http://ns.adobe.com/Flows/1.0/">
]>
<svg version="1.1"
	 xmlns="http://www.w3.org/2000/svg" xmlns:xlink="http://www.w3.org/1999/xlink" xmlns:a="http://ns.adobe.com/AdobeSVGViewerExtensions/3.0/"
	 x="0px" y="0px" width="13px" height="36px" viewBox="-0.188 -0.938 13 36"
	 overflow="visible" enable-background="new -0.188 -0.938 13 36" xml:space="preserve">
<defs>
</defs>
<path fill="#848484" d="M11.319,24.678c-1.135-1.57-2.409-1.9-2.449-3.768V2.593C8.87,1.161,7.708,0,6.276,0
	C4.843,0,3.68,1.161,3.68,2.593V20.91c-0.04,1.867-1.314,2.197-2.449,3.768C0.432,25.781,0,27.125,0,28.486
	c0,3.52,2.787,6.381,6.276,6.514c3.486-0.133,6.274-2.994,6.274-6.514C12.551,27.125,12.118,25.781,11.319,24.678z M6.276,33.584
	c-2.731-0.131-4.863-2.361-4.863-5.098c0-1.062,0.344-2.121,0.965-2.98c0.307-0.428,0.631-0.744,0.976-1.08
	c0.798-0.781,1.7-1.666,1.741-3.483V9.179c0-0.651,0.529-1.181,1.182-1.181c0.65,0,1.179,0.53,1.179,1.181V20.91
	c0.042,1.851,0.946,2.734,1.742,3.516c0.345,0.336,0.668,0.652,0.977,1.08c0.621,0.859,0.964,1.918,0.964,2.98
	C11.138,31.223,9.006,33.453,6.276,33.584z"/>
</svg>
