<?xml version="1.0" encoding="utf-8"?>
<!-- Generator: Adobe Illustrator 15.0.2, SVG Export Plug-In  -->
<!DOCTYPE svg PUBLIC "-//W3C//DTD SVG 1.1//EN" "http://www.w3.org/Graphics/SVG/1.1/DTD/svg11.dtd" [
	<!ENTITY ns_flows "http://ns.adobe.com/Flows/1.0/">
]>
<svg version="1.1"
	 xmlns="http://www.w3.org/2000/svg" xmlns:xlink="http://www.w3.org/1999/xlink" xmlns:a="http://ns.adobe.com/AdobeSVGViewerExtensions/3.0/"
	 x="0px" y="0px" width="50px" height="50px" viewBox="-7.5 -4.894 50 50"
	 overflow="visible" enable-background="new -7.5 -4.894 50 50" xml:space="preserve">
<defs>
</defs>
<path fill="#2D3580" d="M27.691,15.828l-10.189,6.885L17.5,10.41c-2.773,0-5.334,0.922-7.391,2.475
	c-0.049,0.033-0.09,0.07-0.135,0.104c-0.109,0.084-0.219,0.17-0.328,0.258c-0.1,0.088-0.205,0.172-0.301,0.264
	c-0.047,0.039-0.091,0.078-0.135,0.113c-0.125,0.117-0.248,0.234-0.366,0.355c-0.021,0.014-0.034,0.033-0.054,0.049
	c-0.129,0.131-0.256,0.266-0.381,0.4c0,0-0.012,0.014-0.02,0.023c-0.127,0.141-0.252,0.283-0.371,0.426
	c-0.008,0.006-0.012,0.012-0.018,0.021c-0.116,0.141-0.227,0.283-0.338,0.426c-0.01,0.02-0.02,0.031-0.031,0.045
	c-0.104,0.135-0.195,0.271-0.292,0.408c-0.021,0.031-0.04,0.062-0.063,0.094c-0.081,0.123-0.16,0.242-0.236,0.369
	c-0.031,0.049-0.064,0.104-0.092,0.154c-0.064,0.102-0.125,0.213-0.184,0.316c-0.045,0.076-0.086,0.152-0.129,0.23
	c-0.043,0.084-0.084,0.164-0.129,0.25c-0.051,0.104-0.1,0.209-0.152,0.312c-0.025,0.061-0.055,0.117-0.078,0.178
	c-0.061,0.131-0.117,0.262-0.169,0.393c-0.017,0.039-0.03,0.078-0.046,0.115c-0.059,0.148-0.117,0.305-0.174,0.457
	c-0.006,0.023-0.014,0.047-0.02,0.066c-0.059,0.166-0.117,0.336-0.164,0.508c-0.002,0.01-0.006,0.025-0.013,0.035
	c-0.048,0.176-0.097,0.359-0.144,0.537c-0.002,0.012-0.004,0.027-0.008,0.039c-0.041,0.174-0.078,0.35-0.114,0.533
	c-0.005,0.021-0.013,0.049-0.017,0.078c-0.027,0.16-0.057,0.324-0.08,0.49c-0.008,0.061-0.012,0.121-0.021,0.178
	c-0.021,0.133-0.039,0.266-0.051,0.4c-0.012,0.133-0.021,0.268-0.029,0.402c-0.004,0.061-0.009,0.119-0.015,0.182
	c-0.04,0.824-0.003,1.656,0.124,2.479c0.004,0.035,0.012,0.068,0.019,0.1c0.026,0.162,0.052,0.326,0.089,0.49
	c0.012,0.064,0.025,0.127,0.037,0.191c0.033,0.127,0.059,0.258,0.094,0.389c0.021,0.09,0.048,0.176,0.074,0.266
	c0.025,0.102,0.055,0.205,0.086,0.307c0.032,0.111,0.07,0.219,0.107,0.33c0.027,0.078,0.049,0.156,0.08,0.23
	c0.048,0.135,0.098,0.27,0.152,0.402c0.02,0.049,0.041,0.104,0.064,0.152c0.066,0.164,0.139,0.326,0.211,0.482
	c0.01,0.023,0.018,0.045,0.03,0.064c0.356,0.754,0.79,1.469,1.284,2.133c0.031,0.035,0.061,0.07,0.088,0.107
	c0.094,0.117,0.182,0.236,0.281,0.35c0.08,0.098,0.164,0.193,0.244,0.289c0.049,0.049,0.09,0.104,0.135,0.15
	c0.111,0.117,0.224,0.236,0.338,0.352c0.022,0.023,0.043,0.045,0.062,0.066c0.129,0.129,0.26,0.252,0.391,0.371
	c0.012,0.008,0.021,0.023,0.031,0.033c0.137,0.121,0.275,0.242,0.414,0.355c0.013,0.012,0.025,0.021,0.037,0.029
	c0.137,0.115,0.275,0.225,0.418,0.33c0.016,0.012,0.036,0.027,0.057,0.039c0.129,0.102,0.263,0.195,0.396,0.285
	c0.035,0.023,0.068,0.049,0.1,0.068c0.123,0.084,0.242,0.158,0.361,0.232c0.057,0.033,0.111,0.068,0.164,0.102
	c0.102,0.061,0.205,0.121,0.307,0.176c0.081,0.047,0.16,0.09,0.238,0.131c0.084,0.043,0.164,0.086,0.242,0.127
	c0.109,0.051,0.209,0.105,0.32,0.152c0.059,0.029,0.119,0.057,0.175,0.084c0.13,0.055,0.259,0.113,0.394,0.168
	c0.039,0.014,0.072,0.029,0.115,0.043c0.15,0.062,0.301,0.117,0.457,0.174c0.025,0.006,0.043,0.012,0.066,0.021
	c0.17,0.055,0.337,0.113,0.508,0.16c0.012,0.008,0.026,0.012,0.039,0.014c0.176,0.049,0.352,0.1,0.527,0.143
	c0.02,0.004,0.035,0.006,0.049,0.008c0.174,0.043,0.348,0.082,0.525,0.119c0.027,0.004,0.059,0.01,0.088,0.014
	c0.158,0.029,0.322,0.059,0.486,0.078c0.062,0.014,0.125,0.02,0.188,0.027c0.127,0.02,0.258,0.033,0.388,0.043
	c0.144,0.018,0.286,0.025,0.431,0.035c0.051,0.006,0.1,0.01,0.154,0.014c0.824,0.041,1.654,0.002,2.479-0.127
	c0.031-0.004,0.059-0.008,0.088-0.012c0.168-0.027,0.338-0.059,0.504-0.092c0.061-0.012,0.123-0.027,0.178-0.039
	c0.135-0.029,0.271-0.061,0.4-0.096c0.088-0.02,0.174-0.043,0.258-0.068c0.107-0.031,0.209-0.059,0.316-0.092
	c0.109-0.029,0.219-0.07,0.33-0.107c0.078-0.025,0.154-0.049,0.23-0.078c0.137-0.047,0.273-0.102,0.406-0.158
	c0.051-0.018,0.1-0.037,0.146-0.055c0.17-0.07,0.338-0.145,0.5-0.225c0.016-0.006,0.033-0.01,0.047-0.018
	c0.758-0.361,1.477-0.797,2.138-1.295c0.011-0.006,0.019-0.018,0.028-0.023c0.148-0.109,0.291-0.225,0.434-0.342
	c0.078-0.068,0.159-0.139,0.236-0.207c0.066-0.059,0.135-0.115,0.201-0.174c0.107-0.1,0.213-0.201,0.314-0.303
	c0.037-0.035,0.07-0.066,0.105-0.102c0.111-0.113,0.229-0.236,0.34-0.355c0.021-0.023,0.039-0.047,0.062-0.066
	c0.111-0.129,0.225-0.258,0.335-0.389c0.017-0.02,0.034-0.039,0.05-0.059c0.107-0.129,0.205-0.262,0.309-0.395
	c0.02-0.027,0.039-0.051,0.062-0.08c0.093-0.125,0.179-0.248,0.266-0.373c0.03-0.043,0.058-0.088,0.089-0.129
	c0.072-0.109,0.146-0.221,0.217-0.338c0.036-0.062,0.076-0.121,0.115-0.186c0.056-0.096,0.105-0.189,0.162-0.283
	c0.047-0.088,0.096-0.176,0.145-0.264c0.039-0.072,0.072-0.143,0.111-0.221c0.057-0.111,0.113-0.225,0.166-0.344
	c0.025-0.047,0.049-0.094,0.068-0.146c0.062-0.139,0.125-0.277,0.182-0.416c0.012-0.031,0.021-0.062,0.031-0.092
	c0.064-0.158,0.127-0.32,0.186-0.482c0.004-0.012,0.008-0.027,0.01-0.041c0.062-0.174,0.121-0.352,0.174-0.533
	c0.004-0.004,0.004-0.008,0.004-0.008c0.055-0.188,0.102-0.375,0.15-0.561c0.002-0.008,0.002-0.01,0.004-0.016
	c0.043-0.182,0.082-0.371,0.121-0.555c0.002-0.02,0.008-0.033,0.01-0.053c0.027-0.174,0.061-0.346,0.084-0.521
	c0.006-0.045,0.01-0.094,0.021-0.143c0.021-0.143,0.038-0.285,0.05-0.432c0.013-0.117,0.021-0.24,0.028-0.355
	c0.005-0.074,0.015-0.154,0.017-0.23C29.918,20.758,29.246,18.125,27.691,15.828z"/>
<path fill="#2D3580" d="M19.896,5.381V4.424h0.914c1.223,0,2.215-0.99,2.215-2.215C23.025,0.99,22.033,0,20.811,0h-6.619
	c-1.223,0-2.217,0.99-2.217,2.209c0,1.225,0.994,2.215,2.217,2.215h0.844v0.971C11.447,5.896,8.209,7.496,5.666,9.83L5.107,9.139
	L5.369,8.93c0.445-0.363,0.262-1.336-0.414-2.18C4.279,5.912,3.363,5.52,2.918,5.883L0.482,7.838
	c-0.445,0.361-0.264,1.336,0.412,2.18c0.68,0.838,1.591,1.23,2.041,0.867l0.26-0.209l0.768,0.957C1.492,14.648,0,18.506,0,22.713
	c0,9.668,7.838,17.5,17.5,17.5c9.665,0,17.5-7.832,17.5-17.5C35.002,13.863,28.43,6.551,19.896,5.381z M17.5,37.143
	c-7.967,0-14.428-6.455-14.428-14.43c0-7.967,6.461-14.428,14.428-14.428c7.971,0,14.43,6.461,14.43,14.428
	C31.93,30.688,25.471,37.143,17.5,37.143z"/>
</svg>
