<?xml version="1.0" encoding="utf-8"?>
<!-- Generator: Adobe Illustrator 16.0.0, SVG Export Plug-In . SVG Version: 6.00 Build 0)  -->
<!DOCTYPE svg PUBLIC "-//W3C//DTD SVG 1.1//EN" "http://www.w3.org/Graphics/SVG/1.1/DTD/svg11.dtd">
<svg version="1.1" id="Layer_1" xmlns="http://www.w3.org/2000/svg" xmlns:xlink="http://www.w3.org/1999/xlink" x="0px" y="0px"
	 width="100px" height="100px" viewBox="-46.5 0 100 100" enable-background="new -46.5 0 100 100" xml:space="preserve">
<g>
	<g>
		<circle cx="-26.551" cy="16.433" r="2.504"/>
		<path d="M51.087,61.942c0.002-0.024,0.014-0.045,0.014-0.069c0-7.189-5.849-13.037-13.037-13.037H-9.575V1.545
			C-9.575,0.692-10.267,0-11.121,0h-30.874c-0.854,0-1.546,0.692-1.546,1.545v60.328v36.581c0,0.41,0.163,0.804,0.453,1.093
			c0.29,0.29,0.683,0.453,1.094,0.453l56.575-0.002c3.446,0,6.689-1.522,8.894-4.174c0.001-0.001,0.001-0.002,0.003-0.004
			l27.271-32.962c0.096-0.117,0.173-0.244,0.229-0.379c0.004-0.011,0.004-0.021,0.009-0.031
			C51.05,62.287,51.079,62.116,51.087,61.942z M38.063,51.927c4.957,0,9.066,3.649,9.813,8.399H-9.575v-8.399H38.063z M-40.45,3.092
			h27.783v57.234H-40.45V3.092z M21.096,93.849c-1.616,1.943-3.991,3.058-6.516,3.058l-55.03,0.002V63.419h29.329h57.392
			L21.096,93.849z"/>
	</g>
</g>
</svg>
