<?xml version="1.0" encoding="utf-8"?>
<!-- Generator: Adobe Illustrator 15.0.2, SVG Export Plug-In  -->
<!DOCTYPE svg PUBLIC "-//W3C//DTD SVG 1.1//EN" "http://www.w3.org/Graphics/SVG/1.1/DTD/svg11.dtd" [
	<!ENTITY ns_flows "http://ns.adobe.com/Flows/1.0/">
]>
<svg version="1.1"
	 xmlns="http://www.w3.org/2000/svg" xmlns:xlink="http://www.w3.org/1999/xlink" xmlns:a="http://ns.adobe.com/AdobeSVGViewerExtensions/3.0/"
	 x="0px" y="0px" width="25px" height="26px" viewBox="-0.751 -0.831 25 26"
	 overflow="visible" enable-background="new -0.751 -0.831 25 26" xml:space="preserve">
<defs>
</defs>
<path fill="#424242" d="M0,0v6.586V25h23.77V6.586V0H0z M0.777,0.779H22.99v5.028H0.777V0.779z M22.99,24.221H0.777V6.586H22.99
	V24.221z M4.372,3.333c0,0.474-0.366,0.857-0.817,0.857c-0.45,0-0.818-0.384-0.818-0.857c0-0.479,0.368-0.863,0.818-0.863
	C4.006,2.47,4.372,2.854,4.372,3.333z M9.117,3.333c0,0.474-0.366,0.857-0.814,0.857c-0.455,0-0.823-0.384-0.823-0.857
	c0-0.479,0.368-0.863,0.823-0.863C8.751,2.47,9.117,2.854,9.117,3.333z M6.745,3.333c0,0.474-0.365,0.857-0.816,0.857
	c-0.453,0-0.818-0.384-0.818-0.857c0-0.479,0.365-0.863,0.818-0.863C6.38,2.47,6.745,2.854,6.745,3.333z M11.884,20.874
	c3.268,0,5.922-2.648,5.922-5.92s-2.654-5.919-5.922-5.919c-3.27,0-5.92,2.647-5.92,5.919S8.614,20.874,11.884,20.874z
	 M11.884,10.594c2.406,0,4.36,1.956,4.36,4.36s-1.954,4.362-4.36,4.362c-2.404,0-4.357-1.958-4.357-4.362
	S9.479,10.594,11.884,10.594z M8.447,14.954c0-1.897,1.544-3.44,3.437-3.44v0.39c-1.681,0-3.046,1.367-3.046,3.051
	s1.365,3.051,3.046,3.051s3.05-1.367,3.05-3.051h0.391c0,1.897-1.544,3.441-3.44,3.441C9.991,18.396,8.447,16.852,8.447,14.954z
	 M11.884,12.821c1.18,0,2.137,0.958,2.137,2.133H13.63c0-0.961-0.782-1.745-1.746-1.745c-0.962,0-1.743,0.782-1.743,1.745
	c0,0.961,0.781,1.745,1.743,1.745v0.39c-1.176,0-2.132-0.959-2.132-2.135S10.708,12.821,11.884,12.821z"/>
</svg>
