<?xml version="1.0" encoding="utf-8"?>
<!-- Generator: Adobe Illustrator 16.0.0, SVG Export Plug-In . SVG Version: 6.00 Build 0)  -->
<!DOCTYPE svg PUBLIC "-//W3C//DTD SVG 1.1//EN" "http://www.w3.org/Graphics/SVG/1.1/DTD/svg11.dtd">
<svg version="1.1" id="Layer_1" xmlns="http://www.w3.org/2000/svg" xmlns:xlink="http://www.w3.org/1999/xlink" x="0px" y="0px"
	 width="100px" height="47.757px" viewBox="-51.619 31.161 100 47.757" enable-background="new -51.619 31.161 100 47.757"
	 xml:space="preserve">
<g>
	<path d="M-34.782,63.264h-16.836v0.207l4.003,5.401h7.365C-39.432,66.237-37.385,64.151-34.782,63.264z"/>
	<circle cx="-31.993" cy="71.44" r="7.478"/>
	<circle cx="33.429" cy="71.44" r="7.478"/>
	<path d="M42.774,31.956H23.147v31.308h-52.353c2.604,0.888,4.65,2.974,5.469,5.608h48.909c1.094-3.52,4.377-6.076,8.258-6.076
		c3.88,0,7.162,2.557,8.256,6.076h6.695V48.078L42.774,31.956z M25.951,45.741v-10.93h14.955l3.736,10.93H25.951z"/>
	<path d="M-37.436,59.526H6.161c7.833,0,14.182-6.351,14.182-14.183S13.994,31.161,6.162,31.161h-43.598
		c-7.834,0-14.183,6.351-14.183,14.183S-45.269,59.526-37.436,59.526z M-15.681,37.612v-0.097c0,0,0.019,0.019,0.043,0.047
		c0.026-0.028,0.043-0.047,0.043-0.047v0.097c0.833,0.942,7.455,8.674,4.519,13.164c0,0-1.45,2.34-4.519,2.387v0.008
		c-0.017,0-0.029-0.004-0.043-0.004c-0.015,0-0.027,0.004-0.043,0.004v-0.008c-3.069-0.045-4.519-2.387-4.519-2.387
		C-23.135,46.286-16.514,38.555-15.681,37.612z"/>
</g>
</svg>
