<?xml version="1.0" encoding="utf-8"?>
<!-- Generator: Adobe Illustrator 15.0.2, SVG Export Plug-In  -->
<!DOCTYPE svg PUBLIC "-//W3C//DTD SVG 1.1//EN" "http://www.w3.org/Graphics/SVG/1.1/DTD/svg11.dtd" [
	<!ENTITY ns_flows "http://ns.adobe.com/Flows/1.0/">
]>
<svg version="1.1"
	 xmlns="http://www.w3.org/2000/svg" xmlns:xlink="http://www.w3.org/1999/xlink" xmlns:a="http://ns.adobe.com/AdobeSVGViewerExtensions/3.0/"
	 x="0px" y="0px" width="50px" height="50px" viewBox="-20.43 -18.43 50 50"
	 overflow="visible" enable-background="new -20.43 -18.43 50 50" xml:space="preserve">
<defs>
</defs>
<path fill="#A4D5F5" d="M4.57,13.14C2.044,13.14,0,11.095,0,8.57c0-0.902,0.276-1.741,0.723-2.455
	C1.179,5.4,3.089,2.981,3.812,0.571C3.928,0.188,4.285,0,4.57,0s0.651,0.188,0.759,0.571C6.052,2.981,7.962,5.4,8.418,6.115
	C8.873,6.829,9.141,7.667,9.141,8.57C9.141,11.095,7.097,13.14,4.57,13.14z M4.392,9.096C4.275,8.917,3.803,8.31,3.615,7.712
	C3.589,7.615,3.499,7.57,3.428,7.57S3.267,7.615,3.24,7.712C3.053,8.31,2.58,8.917,2.464,9.096C2.356,9.275,2.285,9.489,2.285,9.712
	c0,0.633,0.509,1.143,1.143,1.143s1.143-0.51,1.143-1.143C4.57,9.489,4.499,9.275,4.392,9.096z"/>
</svg>
