<?xml version="1.0" encoding="utf-8"?>
<!-- Generator: Adobe Illustrator 15.0.2, SVG Export Plug-In  -->
<!DOCTYPE svg PUBLIC "-//W3C//DTD SVG 1.1//EN" "http://www.w3.org/Graphics/SVG/1.1/DTD/svg11.dtd" [
	<!ENTITY ns_flows "http://ns.adobe.com/Flows/1.0/">
]>
<svg version="1.1"
	 xmlns="http://www.w3.org/2000/svg" xmlns:xlink="http://www.w3.org/1999/xlink" xmlns:a="http://ns.adobe.com/AdobeSVGViewerExtensions/3.0/"
	 x="0px" y="0px" width="14px" height="15px" viewBox="-0.619 -0.667 14 15"
	 overflow="visible" enable-background="new -0.619 -0.667 14 15" xml:space="preserve">
<defs>
</defs>
<path fill="#A4D5F5" d="M10.185,13.711H2.384C0.964,13.711,0,12.845,0,11.399c0-2.018,0.473-5.115,3.089-5.115
	c0.276,0,1.445,1.24,3.195,1.24s2.919-1.24,3.195-1.24c2.616,0,3.089,3.098,3.089,5.115C12.568,12.845,11.604,13.711,10.185,13.711z
	 M6.284,6.855c-1.893,0-3.428-1.535-3.428-3.428S4.392,0,6.284,0s3.428,1.535,3.428,3.428S8.177,6.855,6.284,6.855z"/>
</svg>
